<svg width="53" height="14" viewBox="0 0 53 14" fill="none" xmlns="http://www.w3.org/2000/svg">
<path d="M17.0256 11.0994C16.6089 11.0994 16.2337 11.0166 15.8999 10.8509C15.5661 10.6851 15.2985 10.4579 15.0973 10.169C14.8961 9.88021 14.786 9.55114 14.767 9.18182H15.6193C15.6525 9.51089 15.8016 9.78314 16.0668 9.99858C16.3343 10.2116 16.6539 10.3182 17.0256 10.3182C17.3239 10.3182 17.589 10.2483 17.821 10.1087C18.0554 9.96899 18.2389 9.77723 18.3714 9.53338C18.5064 9.28717 18.5739 9.009 18.5739 8.69886C18.5739 8.38163 18.504 8.09872 18.3643 7.85014C18.227 7.5992 18.0376 7.40152 17.7962 7.2571C17.5547 7.11269 17.2789 7.0393 16.9688 7.03693C16.7462 7.03456 16.5178 7.06889 16.2834 7.13991C16.049 7.20857 15.8561 7.29735 15.7045 7.40625L14.8807 7.30682L15.321 3.72727H19.0994V4.50852H16.0597L15.804 6.65341H15.8466C15.9957 6.53504 16.1828 6.43679 16.4077 6.35866C16.6326 6.28054 16.867 6.24148 17.1108 6.24148C17.5559 6.24148 17.9524 6.34801 18.3004 6.56108C18.6508 6.77178 18.9254 7.06061 19.1243 7.42756C19.3255 7.79451 19.4261 8.21354 19.4261 8.68466C19.4261 9.14867 19.322 9.56297 19.1136 9.92756C18.9077 10.2898 18.6236 10.5762 18.2614 10.7869C17.8991 10.9953 17.4872 11.0994 17.0256 11.0994ZM23.3936 3.72727V11H22.513V4.65057H22.4703L20.6948 5.82955V4.93466L22.513 3.72727H23.3936ZM25.4853 11V10.3608L27.8858 7.73295C28.1676 7.42519 28.3996 7.15767 28.5819 6.9304C28.7641 6.70076 28.8991 6.48532 28.9867 6.28409C29.0766 6.08049 29.1216 5.86742 29.1216 5.64489C29.1216 5.3892 29.0601 5.16785 28.937 4.98082C28.8162 4.7938 28.6505 4.64938 28.4398 4.54759C28.2291 4.44579 27.9924 4.39489 27.7296 4.39489C27.4502 4.39489 27.2064 4.45289 26.998 4.56889C26.7921 4.68253 26.6323 4.84233 26.5186 5.0483C26.4074 5.25426 26.3517 5.49574 26.3517 5.77273H25.5137C25.5137 5.34659 25.6119 4.97254 25.8084 4.65057C26.0049 4.3286 26.2724 4.07765 26.611 3.89773C26.9519 3.7178 27.3342 3.62784 27.758 3.62784C28.1841 3.62784 28.5617 3.7178 28.8908 3.89773C29.2199 4.07765 29.4779 4.32031 29.665 4.62571C29.852 4.93111 29.9455 5.27083 29.9455 5.64489C29.9455 5.91241 29.897 6.17401 29.7999 6.42969C29.7052 6.683 29.5395 6.96591 29.3027 7.27841C29.0684 7.58854 28.7428 7.96733 28.3262 8.41477L26.6926 10.1619V10.2188H30.0733V11H25.4853ZM35.1479 9.01136L35.1337 7.97443H35.3042L37.6905 5.54545H38.7275L36.1848 8.11648H36.1138L35.1479 9.01136ZM34.3667 11V3.72727H35.2047V11H34.3667ZM37.8326 11L35.7019 8.30114L36.2985 7.71875L38.8979 11H37.8326ZM41.7974 11.1136C41.286 11.1136 40.8457 10.9929 40.4764 10.7514C40.1071 10.5099 39.823 10.1773 39.6241 9.75355C39.4252 9.32978 39.3258 8.84564 39.3258 8.30114C39.3258 7.74716 39.4276 7.25829 39.6312 6.83452C39.8372 6.40838 40.1236 6.07576 40.4906 5.83665C40.8599 5.59517 41.2908 5.47443 41.7832 5.47443C42.1667 5.47443 42.5124 5.54545 42.8201 5.6875C43.1279 5.82955 43.38 6.02841 43.5765 6.28409C43.773 6.53977 43.8949 6.83807 43.9423 7.17898H43.1042C43.0403 6.9304 42.8983 6.71023 42.6781 6.51847C42.4603 6.32434 42.1667 6.22727 41.7974 6.22727C41.4707 6.22727 41.1842 6.3125 40.938 6.48295C40.6942 6.65104 40.5036 6.88897 40.3663 7.19673C40.2314 7.50213 40.1639 7.8608 40.1639 8.27273C40.1639 8.69413 40.2302 9.06108 40.3627 9.37358C40.4977 9.68608 40.6871 9.92874 40.9309 10.1016C41.1771 10.2744 41.466 10.3608 41.7974 10.3608C42.0152 10.3608 42.2129 10.3229 42.3904 10.2472C42.568 10.1714 42.7183 10.0625 42.8414 9.92045C42.9645 9.77841 43.0521 9.60795 43.1042 9.40909H43.9423C43.8949 9.73106 43.7778 10.0211 43.5907 10.2791C43.4061 10.5348 43.161 10.7384 42.8556 10.8899C42.5526 11.0391 42.1999 11.1136 41.7974 11.1136ZM46.7725 11.1278C46.4269 11.1278 46.1132 11.0627 45.8315 10.9325C45.5498 10.8 45.3261 10.6094 45.1603 10.3608C44.9946 10.1098 44.9118 9.80682 44.9118 9.4517C44.9118 9.1392 44.9733 8.88589 45.0964 8.69176C45.2195 8.49527 45.3841 8.34138 45.59 8.23011C45.796 8.11884 46.0233 8.03598 46.2718 7.98153C46.5228 7.92472 46.7749 7.87973 47.0282 7.84659C47.3597 7.80398 47.6284 7.77202 47.8343 7.75071C48.0427 7.72704 48.1942 7.68797 48.2889 7.63352C48.3859 7.57907 48.4345 7.48437 48.4345 7.34943V7.32102C48.4345 6.97064 48.3386 6.69839 48.1468 6.50426C47.9574 6.31013 47.6698 6.21307 47.2839 6.21307C46.8838 6.21307 46.5701 6.30066 46.3429 6.47585C46.1156 6.65104 45.9558 6.83807 45.8635 7.03693L45.068 6.75284C45.21 6.4214 45.3994 6.16335 45.6362 5.97869C45.8753 5.79167 46.1357 5.66146 46.4174 5.58807C46.7015 5.51231 46.9809 5.47443 47.2555 5.47443C47.4307 5.47443 47.6319 5.49574 47.8592 5.53835C48.0888 5.5786 48.3102 5.66264 48.5233 5.79048C48.7387 5.91832 48.9174 6.11127 49.0595 6.36932C49.2015 6.62737 49.2725 6.97301 49.2725 7.40625V11H48.4345V10.2614H48.3919C48.335 10.3797 48.2404 10.5064 48.1078 10.6413C47.9752 10.7763 47.7988 10.8911 47.5787 10.9858C47.3585 11.0805 47.0898 11.1278 46.7725 11.1278ZM46.9004 10.375C47.2318 10.375 47.5112 10.3099 47.7385 10.1797C47.9681 10.0495 48.1409 9.88139 48.2569 9.67543C48.3753 9.46946 48.4345 9.25284 48.4345 9.02557V8.25852C48.399 8.30114 48.3208 8.3402 48.2001 8.37571C48.0817 8.40885 47.9444 8.43845 47.7882 8.46449C47.6343 8.48816 47.484 8.50947 47.3372 8.52841C47.1928 8.54498 47.0756 8.55919 46.9856 8.57102C46.7678 8.59943 46.5642 8.6456 46.3748 8.70952C46.1878 8.77107 46.0363 8.86458 45.9203 8.99006C45.8066 9.11316 45.7498 9.28125 45.7498 9.49432C45.7498 9.78551 45.8575 10.0057 46.073 10.1548C46.2908 10.3016 46.5666 10.375 46.9004 10.375ZM51.6403 3.72727V11H50.8022V3.72727H51.6403Z" fill="black"/>
<path d="M8.16766 12.9805C9.39786 12.5977 10.9899 11.4624 10.9899 8.87536C10.9899 6.06488 7.91536 3.04627 5.86541 1.48469C5.52696 1.22684 5.04025 1.4125 4.88236 1.80763C3.88161 4.31164 1.26062 6.9621 1.26062 8.87536C1.26062 10.7646 2.62611 12.1035 3.74244 12.7497" stroke="#919191"/>
<path d="M8.14264 13.0096C7.88031 13.0866 7.70786 12.7979 7.8648 12.5849C8.40016 11.8585 9.01906 10.7504 9.01906 9.70777C9.01906 8.5878 8.01932 7.26556 7.23867 6.45001C7.0602 6.26358 6.74886 6.38697 6.73913 6.63811C6.7069 7.47019 6.56784 8.58344 5.96821 9.45594C5.87171 9.59638 5.66679 9.60798 5.55684 9.47667C5.3695 9.25298 5.18209 8.97657 4.99474 8.75822C4.89386 8.64063 4.71144 8.63902 4.59503 8.74306C4.14119 9.14882 3.5058 9.78161 3.5058 10.569C3.5058 11.137 3.79244 11.8438 4.08795 12.3912C4.22216 12.6398 3.97319 12.9315 3.71742 12.7917" stroke="#919191"/>
</svg>
