<svg width="12" height="14" viewBox="0 0 12 14" fill="none" xmlns="http://www.w3.org/2000/svg">
<path d="M8.16766 12.9805C9.39786 12.5977 10.9899 11.4624 10.9899 8.87536C10.9899 6.06488 7.91536 3.04627 5.86541 1.48469C5.52696 1.22684 5.04025 1.4125 4.88236 1.80763C3.88161 4.31164 1.26062 6.9621 1.26062 8.87536C1.26062 10.7646 2.62611 12.1035 3.74244 12.7497" stroke="#919191"/>
<path d="M8.14264 13.0096C7.88031 13.0866 7.70786 12.7979 7.8648 12.5849C8.40016 11.8585 9.01906 10.7504 9.01906 9.70777C9.01906 8.5878 8.01932 7.26556 7.23867 6.45001C7.0602 6.26358 6.74886 6.38697 6.73913 6.63811C6.7069 7.47019 6.56784 8.58344 5.96821 9.45594C5.87171 9.59638 5.66679 9.60798 5.55684 9.47667C5.3695 9.25298 5.18209 8.97657 4.99474 8.75822C4.89386 8.64063 4.71144 8.63902 4.59503 8.74306C4.14119 9.14882 3.5058 9.78161 3.5058 10.569C3.5058 11.137 3.79244 11.8438 4.08795 12.3912C4.22216 12.6398 3.97319 12.9315 3.71742 12.7917" stroke="#919191"/>
</svg>
