<svg width="17" height="14" viewBox="0 0 17 14" fill="none" xmlns="http://www.w3.org/2000/svg">
<g clip-path="url(#clip0_35_636)">
<path d="M8.33865 0.219436C8.36281 0.218459 8.38697 0.217482 8.41186 0.216475C8.61801 0.246881 8.7688 0.447958 8.9097 0.589441C8.95064 0.630465 8.99191 0.671131 9.03323 0.71178C9.26771 0.944747 9.49068 1.19357 9.64081 1.49055C9.65543 1.51903 9.67006 1.5475 9.68513 1.57684C9.6953 1.59743 9.70548 1.61802 9.71596 1.63923C9.82639 1.5319 9.92169 1.41767 10.0172 1.29715C10.151 1.13967 10.2968 1.00576 10.4626 0.88277C10.4899 0.862545 10.4899 0.862545 10.5177 0.841912C11.0299 0.468264 11.6476 0.22695 12.2868 0.221376C12.31 0.221165 12.3332 0.220954 12.3571 0.220737C12.4059 0.220377 12.4548 0.220096 12.5037 0.219889C12.5535 0.219587 12.6034 0.219051 12.6532 0.218281C12.7255 0.217165 12.7978 0.216743 12.8701 0.216475C12.9033 0.215788 12.9033 0.215788 12.9372 0.215088C13.0782 0.215603 13.1612 0.235573 13.2712 0.33217C13.3653 0.444279 13.3614 0.552798 13.3609 0.692634C13.3611 0.71506 13.3612 0.737487 13.3613 0.760593C13.3615 0.808186 13.3615 0.855779 13.3613 0.903372C13.361 0.974405 13.3618 1.04538 13.3626 1.11641C13.3662 2.00313 13.0228 2.80461 12.4113 3.44155C12.3079 3.54563 12.1961 3.63838 12.0816 3.72992C12.0302 3.77163 11.9834 3.81322 11.938 3.86124C11.9595 3.87202 11.981 3.88281 12.0031 3.89392C12.2005 3.99603 12.371 4.10656 12.5392 4.25336C12.558 4.26923 12.5767 4.2851 12.596 4.30145C12.7579 4.44241 12.9096 4.59411 13.062 4.74514C13.0843 4.76702 13.1065 4.7889 13.1294 4.81144C13.1503 4.83233 13.1712 4.85321 13.1927 4.87472C13.2116 4.89349 13.2305 4.91225 13.2499 4.93158C13.3347 5.02776 13.3576 5.10303 13.3594 5.23039C13.3601 5.25431 13.3609 5.27824 13.3616 5.30289C13.3354 5.46541 13.2055 5.58215 13.0933 5.6948C13.0713 5.71704 13.0713 5.71704 13.0489 5.73973C13.0179 5.77099 12.9868 5.80218 12.9557 5.83331C12.9092 5.87989 12.8632 5.92686 12.8172 5.97388C12.5549 6.23881 12.2737 6.4722 11.9314 6.62731C11.9108 6.63686 11.8902 6.64642 11.869 6.65626C11.5358 6.80543 11.1826 6.89893 10.8164 6.89618C10.7976 6.89614 10.7787 6.8961 10.7592 6.89606C10.6996 6.89592 10.6399 6.89559 10.5803 6.89526C10.5395 6.89513 10.4988 6.89501 10.4581 6.8949C10.3588 6.89461 10.2596 6.89416 10.1604 6.89362C10.1885 6.92111 10.1885 6.92111 10.2171 6.94914C10.2868 7.01739 10.3562 7.0859 10.4255 7.15449C10.4555 7.1841 10.4856 7.21364 10.5158 7.2431C10.5592 7.28555 10.6023 7.32825 10.6454 7.37101C10.6656 7.39058 10.6656 7.39058 10.6862 7.41055C10.8104 7.53475 10.8449 7.62975 10.8495 7.80438C10.8215 7.97081 10.712 8.07887 10.5973 8.19242C10.5812 8.20859 10.5651 8.22476 10.5485 8.24142C10.5145 8.2755 10.4804 8.30948 10.4462 8.34337C10.3945 8.39459 10.3433 8.44621 10.2921 8.49789C10.12 8.67036 9.95091 8.83056 9.74211 8.95878C9.72597 8.96905 9.70984 8.97932 9.69322 8.9899C9.05558 9.3875 8.36094 9.47753 7.62466 9.40318C7.64419 9.42216 7.66371 9.44114 7.68383 9.46069C7.75649 9.53145 7.8288 9.60256 7.90101 9.67379C7.93226 9.70451 7.9636 9.73514 7.99503 9.76566C8.04032 9.80967 8.08525 9.85402 8.13013 9.89844C8.14415 9.91192 8.15818 9.92541 8.17263 9.9393C8.27365 10.0403 8.32237 10.1308 8.3363 10.273C8.32772 10.3856 8.30692 10.4576 8.23 10.5416C8.21347 10.5596 8.19694 10.5777 8.17992 10.5963C7.51534 11.2963 6.82388 11.9115 5.80346 11.9451C4.86702 11.9612 4.16698 11.6865 3.47668 11.0521C3.41464 10.9967 3.35038 10.945 3.28522 10.8932C3.26499 10.9135 3.26499 10.9135 3.24435 10.9342C2.91613 11.2636 2.58777 11.5928 2.25925 11.9219C2.10038 12.0811 1.94156 12.2402 1.78285 12.3995C1.64452 12.5384 1.5061 12.6772 1.36757 12.8158C1.29422 12.8892 1.22093 12.9627 1.14774 13.0362C1.07883 13.1055 1.00979 13.1747 0.940663 13.2437C0.903277 13.2811 0.86602 13.3186 0.828768 13.3562C0.795175 13.3897 0.795176 13.3897 0.760904 13.4238C0.741555 13.4432 0.722205 13.4626 0.702268 13.4826C0.562392 13.6068 0.459057 13.6261 0.27591 13.6211C0.173858 13.6087 0.118014 13.5779 0.0437026 13.5074C-0.0242402 13.4115 -0.0471195 13.342 -0.0494256 13.2247C-0.0505377 13.1992 -0.0516497 13.1737 -0.0527954 13.1474C-0.00485715 12.9234 0.218782 12.75 0.375102 12.5949C0.400375 12.5697 0.425638 12.5444 0.450889 12.5191C0.518923 12.4511 0.587116 12.3832 0.65534 12.3153C0.726816 12.2442 0.798142 12.1729 0.869485 12.1016C1.00436 11.9669 1.13937 11.8323 1.27442 11.6978C1.42828 11.5445 1.58198 11.3911 1.73567 11.2377C2.05161 10.9223 2.36773 10.6071 2.68397 10.292C2.65931 10.263 2.63462 10.234 2.60992 10.2051C2.5893 10.1809 2.5893 10.1809 2.56826 10.1562C2.51046 10.0899 2.44918 10.027 2.38825 9.96359C1.88434 9.42266 1.6263 8.70633 1.63015 7.97195C1.6303 7.9422 1.63044 7.91244 1.6306 7.88179C1.64329 6.99695 2.0549 6.30425 2.66796 5.69547C2.71728 5.64638 2.76608 5.59681 2.81488 5.5472C2.8465 5.51553 2.87816 5.48389 2.90985 5.45228C2.92423 5.43761 2.93861 5.42293 2.95342 5.40781C3.05539 5.30765 3.14639 5.2552 3.29237 5.2409C3.40697 5.24964 3.4785 5.27165 3.56399 5.34986C3.582 5.36633 3.60002 5.3828 3.61858 5.39976C3.72706 5.50333 3.83323 5.60906 3.93875 5.71563C3.96149 5.7385 3.98424 5.76136 4.00768 5.78492C4.06318 5.84073 4.11863 5.89661 4.17402 5.95254C4.17221 5.93421 4.1704 5.91588 4.16853 5.89699C4.10866 5.26971 4.17743 4.69332 4.4534 4.12102C4.46067 4.10565 4.46794 4.09027 4.47543 4.07443C4.64653 3.73647 4.89631 3.46222 5.16399 3.19891C5.2155 3.14817 5.26649 3.09695 5.31744 3.04565C5.35035 3.01291 5.38328 2.9802 5.41624 2.94752C5.43133 2.93236 5.44641 2.91719 5.46196 2.90157C5.58961 2.77687 5.68639 2.73254 5.86901 2.72767C6.02099 2.75323 6.12552 2.84772 6.22917 2.95477C6.24229 2.96801 6.25542 2.98124 6.26894 2.99487C6.3104 3.03677 6.35158 3.07894 6.39276 3.12111C6.42099 3.14974 6.44924 3.17835 6.47751 3.20694C6.54641 3.2767 6.61506 3.3467 6.68358 3.41684C6.68317 3.3929 6.68276 3.36895 6.68233 3.34429C6.68098 3.25327 6.68001 3.16227 6.67927 3.07124C6.67888 3.03226 6.67835 2.99328 6.67766 2.9543C6.66402 2.16206 6.94685 1.43904 7.49996 0.866447C7.56631 0.799006 7.63325 0.732186 7.70059 0.66572C7.7528 0.614133 7.80465 0.562194 7.85646 0.510206C7.88966 0.477152 7.92288 0.444117 7.95613 0.411105C7.97157 0.395641 7.98701 0.380178 8.00291 0.364246C8.11428 0.254806 8.18439 0.22349 8.33865 0.219436ZM10.8662 1.61309C10.847 1.62822 10.8279 1.64335 10.8082 1.65894C10.3423 2.03872 10.0717 2.64589 10.0035 3.23385C10.0018 3.29428 10.0013 3.35475 10.0019 3.4152C10.0021 3.44509 10.0024 3.47498 10.0026 3.50578C10.0029 3.52819 10.0032 3.5506 10.0035 3.57369C10.6351 3.60244 11.2253 3.38177 11.7027 2.97244C11.7181 2.96081 11.7335 2.94919 11.7494 2.93721C12.181 2.60352 12.4613 2.01284 12.5326 1.48004C12.5508 1.32412 12.5654 1.16895 12.5654 1.01184C11.9462 0.998409 11.3307 1.20011 10.8662 1.61309ZM8.33048 1.19483C7.87885 1.61718 7.51127 2.10951 7.48518 2.75197C7.47656 3.31657 7.58123 3.84226 7.9645 4.2795C7.98374 4.30154 8.00298 4.32358 8.02281 4.34628C8.11398 4.4489 8.2066 4.54907 8.30434 4.64548C8.65462 4.50237 8.89652 4.05735 9.04609 3.73217C9.2654 3.18511 9.24509 2.60143 9.02138 2.05872C8.92659 1.85669 8.79947 1.68404 8.65724 1.51343C8.64578 1.49965 8.63432 1.48586 8.62251 1.47166C8.5339 1.36842 8.43567 1.28092 8.33048 1.19483ZM5.62322 3.89065C5.21056 4.3041 4.95955 4.83782 4.95172 5.42808C4.95823 6.02927 5.18776 6.53618 5.59218 6.97695C5.60826 6.99454 5.62433 7.01213 5.6409 7.03026C5.65623 7.04647 5.67156 7.06267 5.68735 7.07937C5.70111 7.09397 5.71487 7.10856 5.72904 7.1236C5.77045 7.16316 5.77045 7.16316 5.84706 7.15504C6.30593 6.76694 6.61631 6.25458 6.67281 5.65032C6.71786 5.07585 6.54758 4.51466 6.17382 4.07364C6.06985 3.95427 5.96389 3.83742 5.84706 3.73053C5.75122 3.73053 5.68814 3.82595 5.62322 3.89065ZM8.93173 5.22058C9.12538 5.62746 9.61554 5.86725 10.021 6.0132C10.5889 6.18152 11.1679 6.10328 11.6839 5.8251C11.9565 5.67216 12.1683 5.47089 12.3824 5.24673C11.9923 4.76432 11.4849 4.46293 10.8662 4.38406C10.0695 4.31955 9.46549 4.6584 8.93173 5.22058ZM7.44168 4.93303C7.44327 4.95506 7.44327 4.95506 7.4449 4.97753C7.47317 5.38865 7.461 5.78162 7.38939 6.18781C7.41891 6.1826 7.41891 6.1826 7.44903 6.17729C7.85339 6.11006 8.23701 6.10676 8.64417 6.13553C8.52007 5.98634 8.38725 5.84865 8.24991 5.71165C8.22756 5.68928 8.20522 5.66691 8.1822 5.64386C8.13528 5.59693 8.08833 5.55002 8.04135 5.50315C7.96909 5.43103 7.89697 5.35877 7.82486 5.2865C7.77921 5.24086 7.73354 5.19523 7.68787 5.14961C7.6662 5.12789 7.64453 5.10616 7.6222 5.08378C7.60229 5.06396 7.58239 5.04414 7.56188 5.02371C7.53551 4.99738 7.53551 4.99738 7.50861 4.9705C7.47384 4.93008 7.47384 4.93008 7.44168 4.93303ZM3.06512 6.45007C2.64042 6.88438 2.4309 7.43629 2.43629 8.03972C2.44324 8.26149 2.48279 8.46145 2.55326 8.67123C2.56701 8.71253 2.56701 8.71253 2.58104 8.75466C2.72548 9.13933 2.99334 9.4138 3.28522 9.69074C3.74697 9.29885 4.06419 8.84054 4.14788 8.22683C4.19085 7.59992 4.03839 7.03754 3.62505 6.55379C3.52458 6.4451 3.42046 6.34012 3.31136 6.24009C3.23605 6.24009 3.11961 6.39592 3.06512 6.45007ZM6.39603 7.75629C6.78684 8.23967 7.32049 8.54967 7.93836 8.61895C8.46674 8.66017 9.03263 8.51126 9.44285 8.16659C9.58296 8.04426 9.71567 7.91438 9.84667 7.78243C9.70101 7.44204 9.26668 7.19826 8.94133 7.05782C7.95281 6.68168 7.10143 7.02906 6.39603 7.75629ZM4.93212 7.46873C4.93239 7.49109 4.93266 7.51345 4.93295 7.53648C4.94167 8.35672 4.94167 8.35672 4.87983 8.69737C4.90062 8.6936 4.92142 8.68982 4.94284 8.68593C5.32905 8.62645 5.71883 8.64032 6.10847 8.64509C5.98603 8.49803 5.85537 8.36203 5.71993 8.22693C5.69816 8.20514 5.6764 8.18335 5.65397 8.1609C5.60829 8.1152 5.56257 8.06952 5.51682 8.02388C5.44645 7.95365 5.37622 7.88329 5.30601 7.81291C5.26154 7.76846 5.21707 7.72403 5.17259 7.6796C5.15149 7.65844 5.13039 7.63729 5.10865 7.61549C5.08927 7.59619 5.06989 7.5769 5.04992 7.55702C5.03281 7.53992 5.01569 7.52282 4.99806 7.50521C4.96404 7.46579 4.96404 7.46579 4.93212 7.46873ZM4.6707 9.63846C4.64681 9.64941 4.62292 9.66036 4.5983 9.67164C4.38952 9.77529 4.23401 9.92111 4.06945 10.0829C4.04951 10.1024 4.02956 10.1219 4.009 10.1421C3.96779 10.183 3.92705 10.2243 3.88647 10.2658C4.27108 10.7293 4.71988 11.0406 5.32423 11.1285C5.41371 11.1357 5.50244 11.1373 5.59218 11.1367C5.61607 11.1365 5.63996 11.1364 5.66457 11.1363C6.25987 11.1261 6.7664 10.8658 7.18026 10.4488C7.23519 10.3893 7.28647 10.3291 7.33711 10.2658C6.90197 9.80506 6.40089 9.45288 5.74699 9.42208C5.35948 9.41123 5.02353 9.47046 4.6707 9.63846Z" fill="#919191"/>
</g>
<defs>
<clipPath id="clip0_35_636">
<rect width="16.6276" height="13.3843" fill="white" transform="translate(0.083252 0.197998)"/>
</clipPath>
</defs>
</svg>
