<svg width="21" height="11" viewBox="0 0 21 11" fill="none" xmlns="http://www.w3.org/2000/svg">
<path d="M1.50739 0.523709C1.3564 0.164463 0.948426 -0.00195897 0.596143 0.152008C0.243859 0.305974 0.080662 0.722016 0.231645 1.08126L1.50739 0.523709ZM7.38504 7.16016C7.59407 6.83264 7.5031 6.39424 7.18184 6.18108C6.86058 5.96792 6.4307 6.06068 6.22166 6.3883L7.38504 7.16016ZM4.91438 8.43713C4.70534 8.76465 4.79632 9.20304 5.11757 9.4162C5.43883 9.62936 5.86871 9.53661 6.07775 9.20899L4.91438 8.43713ZM20.0136 1.08126C20.1645 0.722016 20.0014 0.305974 19.649 0.152008C19.2968 -0.00195897 18.8888 0.164463 18.7378 0.523709L20.0136 1.08126ZM17.497 6.61429C17.7681 6.89067 18.2074 6.89067 18.4784 6.61429C18.7495 6.33791 18.7495 5.88979 18.4784 5.61341L17.497 6.61429ZM9.42863 9.76666C9.42863 10.1575 9.73935 10.4744 10.1226 10.4744C10.5059 10.4744 10.8166 10.1575 10.8166 9.76666H9.42863ZM14.1675 9.20899C14.3765 9.53661 14.8064 9.62936 15.1276 9.4162C15.4489 9.20304 15.5398 8.76465 15.3308 8.43713L14.1675 9.20899ZM4.13616 5.19889C4.40718 4.92251 4.40718 4.4744 4.13616 4.19802C3.86515 3.92164 3.42574 3.92164 3.15472 4.19802L4.13616 5.19889ZM1.76676 5.61341C1.49575 5.88979 1.49575 6.33791 1.76676 6.61429C2.03777 6.89067 2.47719 6.89067 2.7482 6.61429L1.76676 5.61341ZM10.1226 6.69997C7.13951 6.69997 4.99763 5.18512 3.57568 3.62352C2.8649 2.84295 2.34377 2.06015 2.00079 1.47257C1.8297 1.17945 1.70402 0.936779 1.62216 0.769809C1.58125 0.686386 1.55137 0.622023 1.53229 0.579901C1.52276 0.558849 1.51593 0.543374 1.51178 0.533872C1.50971 0.529126 1.50812 0.525417 1.50739 0.523709C1.50737 0.523672 1.50741 0.523785 1.50739 0.523709C1.50748 0.523926 1.50739 0.52371 0.869516 0.802486C0.231645 1.08126 0.231506 1.08094 0.231645 1.08126C0.2317 1.0814 0.232107 1.08236 0.232228 1.08264C0.232459 1.0832 0.232746 1.08387 0.23307 1.08462C0.233708 1.08615 0.234532 1.08807 0.235522 1.0904C0.237511 1.09503 0.240195 1.10125 0.243572 1.10899C0.250327 1.12449 0.259876 1.1461 0.272257 1.17342C0.296999 1.22807 0.333077 1.30561 0.380731 1.40279C0.475973 1.59705 0.617776 1.8704 0.808131 2.19652C1.18805 2.84741 1.76572 3.71594 2.55858 4.58659C4.14388 6.32762 6.62854 8.11536 10.1226 8.11536V6.69997ZM13.1877 6.11569C12.2898 6.47615 11.2716 6.69997 10.1226 6.69997V8.11536C11.4534 8.11536 12.6437 7.85512 13.6961 7.43276L13.1877 6.11569ZM6.22166 6.3883L4.91438 8.43713L6.07775 9.20899L7.38504 7.16016L6.22166 6.3883ZM19.3757 0.802486C18.7378 0.52371 18.7377 0.523841 18.7378 0.523709C18.7379 0.523558 18.7383 0.5227 18.7383 0.522804C18.7382 0.522992 18.7379 0.523672 18.7373 0.524842C18.7363 0.527173 18.7345 0.531438 18.7318 0.537562C18.7264 0.549819 18.7177 0.569502 18.7056 0.596074C18.6813 0.649217 18.6434 0.729782 18.5916 0.833313C18.488 1.04053 18.3292 1.33874 18.113 1.69249C17.6795 2.40203 17.022 3.32375 16.1248 4.18245L17.0747 5.21446C18.0824 4.24992 18.8128 3.22363 19.291 2.441C19.5308 2.04868 19.7088 1.71476 19.8281 1.47636C19.8877 1.35708 19.9327 1.26148 19.9636 1.19414C19.9789 1.16048 19.9908 1.13386 19.9991 1.11485C20.0032 1.10535 20.0066 1.09776 20.009 1.09213C20.0102 1.08932 20.0111 1.08701 20.0119 1.08519C20.0123 1.08428 20.0126 1.0835 20.0129 1.08285C20.0131 1.08252 20.0135 1.08153 20.0136 1.08126C20.0136 1.08133 20.0137 1.08113 20.0136 1.08126C20.0137 1.0811 20.0136 1.08126 19.3757 0.802486ZM16.1248 4.18245C15.33 4.94318 14.3549 5.6472 13.1877 6.11569L13.6961 7.43276C15.0596 6.88548 16.1802 6.07059 17.0747 5.21446L16.1248 4.18245ZM16.1091 5.19889L17.497 6.61429L18.4784 5.61341L17.0905 4.19802L16.1091 5.19889ZM9.42863 7.40766V9.76666H10.8166V7.40766H9.42863ZM12.8602 7.16016L14.1675 9.20899L15.3308 8.43713L14.0235 6.3883L12.8602 7.16016ZM3.15472 4.19802L1.76676 5.61341L2.7482 6.61429L4.13616 5.19889L3.15472 4.19802Z" fill="#1C274C"/>
</svg>
