<svg width="15" height="14" viewBox="0 0 15 14" fill="none" xmlns="http://www.w3.org/2000/svg">
<path d="M8.77501 0.554845C8.96617 0.676157 8.96617 0.676157 9.26026 0.917963C9.37348 1.00531 9.37348 1.00531 9.48899 1.09442C9.68857 1.056 9.68857 1.056 9.90725 0.989852C10.8348 0.90655 11.6113 1.04288 12.3449 1.63685C12.8887 2.14815 13.2257 2.79033 13.2672 3.54148C13.2669 3.62896 13.2667 3.71644 13.2664 3.80657C13.2664 3.89877 13.2664 3.99096 13.2664 4.08596C13.2533 4.33593 13.2533 4.33593 13.1618 4.61695C13.123 4.86154 13.123 4.86154 13.2742 5.03031C13.3841 5.15277 13.4976 5.27217 13.6148 5.38771C14.1258 6.03063 14.0565 6.90743 13.9853 7.68201C13.8505 8.16846 13.6447 8.5286 13.3252 8.91718C13.267 8.99267 13.2088 9.06815 13.1488 9.14592C13.1872 9.3455 13.1872 9.3455 13.2533 9.56418C13.3366 10.4917 13.2003 11.2682 12.6063 12.0019C12.095 12.5457 11.4529 12.8826 10.7017 12.9241C10.6142 12.9239 10.5267 12.9236 10.4366 12.9233C10.3444 12.9233 10.2522 12.9233 10.1572 12.9233C9.90725 12.9103 9.90725 12.9103 9.62623 12.8188C9.38165 12.78 9.38165 12.78 9.21287 12.9311C9.09041 13.041 8.97101 13.1545 8.85547 13.2717C8.21255 13.7827 7.33576 13.7134 6.56117 13.6422C6.07472 13.5074 5.71458 13.3017 5.326 12.9821C5.25051 12.9239 5.17503 12.8657 5.09726 12.8057C4.89769 12.8441 4.89769 12.8441 4.679 12.9103C3.75147 12.9936 2.97498 12.8572 2.24133 12.2633C1.69753 11.752 1.36056 11.1098 1.31904 10.3586C1.31944 10.2274 1.31944 10.2274 1.31985 10.0935C1.31985 10.0013 1.31985 9.90915 1.31985 9.81416C1.33292 9.56418 1.33292 9.56418 1.42442 9.28316C1.46322 9.03858 1.46322 9.03858 1.31209 8.8698C1.20214 8.74734 1.08865 8.62794 0.971438 8.5124C0.460465 7.86948 0.529761 6.99269 0.600968 6.2181C0.735784 5.73165 0.941532 5.37151 1.26103 4.98293C1.31926 4.90744 1.37749 4.83196 1.43749 4.75419C1.39907 4.55462 1.39907 4.55462 1.33292 4.33593C1.24962 3.4084 1.38595 2.6319 1.97992 1.89826C2.49122 1.35446 3.1334 1.01749 3.88455 0.975964C3.97203 0.976234 4.05951 0.976503 4.14964 0.976781C4.24184 0.976781 4.33404 0.976781 4.42903 0.976781C4.679 0.989852 4.679 0.989852 4.96002 1.08135C5.20461 1.12015 5.20461 1.12015 5.37338 0.96902C5.49584 0.859069 5.61524 0.745575 5.73078 0.628367C6.54151 -0.0159777 7.90208 0.103832 8.77501 0.554845ZM5.79001 1.77409C5.40921 2.35992 5.32442 2.80188 5.41096 3.49941C5.51207 3.80473 5.6306 4.08152 5.82922 4.33593C6.14497 4.47436 6.14497 4.47436 6.47621 4.34247C7.24573 4.12801 7.8957 4.2443 8.65247 4.4405C9.1171 3.76604 9.28158 3.269 9.1753 2.45376C8.94184 1.86307 8.58402 1.50275 8.02508 1.19898C7.16243 0.91143 6.40846 1.12309 5.79001 1.77409ZM2.60731 2.67596C2.19578 3.21683 2.22401 3.67091 2.27401 4.33593C2.45676 4.90567 2.8379 5.25458 3.31966 5.59071C3.77416 5.74221 4.20453 5.76317 4.679 5.69528C5.02178 5.48368 5.02178 5.48368 5.20183 5.17245C5.15945 4.86125 5.03441 4.61127 4.88813 4.33593C4.47818 3.56425 4.50577 2.77547 4.679 1.93094C3.75338 1.87164 3.23423 1.95137 2.60731 2.67596ZM9.90725 1.93094C9.92451 2.01505 9.94176 2.09916 9.95953 2.18581C10.0738 3.00022 10.0394 3.68146 9.69812 4.4405C9.63774 4.52029 9.57735 4.60009 9.51513 4.6823C9.36253 4.8502 9.36253 4.8502 9.39096 5.06789C9.53248 5.36979 9.62691 5.50382 9.90725 5.69528C10.4135 5.78347 10.8912 5.76561 11.3516 5.52536C11.7976 5.19299 12.1321 4.87626 12.3122 4.33593C12.3644 3.79089 12.3825 3.33172 12.1423 2.83281C11.8207 2.4773 11.4911 2.14775 11.0575 1.93094C10.8615 1.92358 10.6653 1.92212 10.4693 1.9244C10.312 1.92582 10.312 1.92582 10.1515 1.92726C10.0306 1.92908 10.0306 1.92908 9.90725 1.93094ZM5.79654 5.74756C5.4116 6.20828 5.37429 6.61946 5.38196 7.20452C5.44245 7.76427 5.73095 8.13915 6.14945 8.50546C6.67892 8.88848 7.18186 8.90075 7.81595 8.83223C8.37996 8.64278 8.73161 8.25536 9.07073 7.78658C9.2391 7.28146 9.27547 6.72547 9.10382 6.21443C8.81788 5.67459 8.39775 5.26182 7.81595 5.06789C6.96178 4.99144 6.38549 5.08899 5.79654 5.74756ZM1.85575 5.69528C1.52812 6.24522 1.30822 6.72199 1.43749 7.36832C1.55414 7.66196 1.69415 7.93358 1.85575 8.20484C2.07451 8.0972 2.29004 7.98679 2.50315 7.86827C3.14792 7.51986 3.74439 7.35616 4.46987 7.26375C4.46987 7.05671 4.46987 6.84967 4.46987 6.63636C4.37511 6.62099 4.28036 6.60563 4.18273 6.5898C3.42634 6.45053 2.85226 6.29472 2.2397 5.82149C2.07255 5.67487 2.07255 5.67487 1.85575 5.69528ZM12.1293 5.98937C11.5134 6.41571 10.8447 6.51826 10.1164 6.63636C10.1164 6.8434 10.1164 7.05044 10.1164 7.26375C10.2111 7.27912 10.3059 7.29448 10.4035 7.31032C11.1624 7.45004 11.7301 7.60201 12.3363 8.08883C12.3974 8.12711 12.4585 8.1654 12.5214 8.20484C12.8663 8.12927 12.8663 8.12927 13.0115 7.78004C13.206 7.27317 13.2549 6.80051 13.0544 6.29285C12.9532 6.0887 12.8471 5.89097 12.7305 5.69528C12.4451 5.69528 12.3541 5.81566 12.1293 5.98937ZM2.60077 8.94333C2.20003 9.4973 2.20647 10.0513 2.27401 10.7144C2.53743 11.2615 2.98199 11.6958 3.52879 11.9692C3.72472 11.9765 3.92091 11.978 4.11697 11.9757C4.22183 11.9748 4.3267 11.9738 4.43474 11.9729C4.51535 11.9716 4.59595 11.9704 4.679 11.9692C4.65312 11.843 4.65312 11.843 4.62672 11.7143C4.51242 10.8999 4.54687 10.2187 4.88813 9.45962C4.97871 9.33992 4.97871 9.33992 5.07112 9.21781C5.22373 9.04991 5.22373 9.04991 5.19529 8.83223C5.05377 8.53032 4.95934 8.39629 4.679 8.20484C3.81132 8.05367 3.18091 8.28055 2.60077 8.94333ZM9.57395 8.44011C9.35808 8.69901 9.35808 8.69901 9.41179 8.92862C9.49136 9.15259 9.58665 9.35435 9.69812 9.56418C10.1081 10.3359 10.0805 11.1246 9.90725 11.9692C10.6816 12.0224 10.6816 12.0224 11.4104 11.7993C12.0493 11.2338 12.0493 11.2338 12.3335 10.4644C12.3483 9.65355 12.3483 9.65355 11.9986 8.93679C11.5148 8.45189 11.1441 8.19332 10.4431 8.16562C10.0289 8.16926 9.92729 8.19069 9.57395 8.44011ZM5.93378 9.45962C5.49424 10.0075 5.32506 10.4597 5.36031 11.1657C5.47157 11.7822 5.77509 12.1591 6.26055 12.5377C6.74237 12.7996 7.16903 12.8753 7.71139 12.8057C8.3561 12.5912 8.73585 12.2587 9.07931 11.671C9.30356 11.1462 9.23849 10.5587 9.03152 10.0413C8.90759 9.84582 8.78084 9.65217 8.65247 9.45962C8.59424 9.47471 8.53601 9.48981 8.47602 9.50536C7.56242 9.72759 6.84221 9.69513 5.93378 9.45962Z" fill="#919191"/>
<path d="M6.03833 10.4006C6.34889 10.4006 6.65945 10.4006 6.97942 10.4006C6.97942 10.7112 6.97942 11.0218 6.97942 11.3417C6.66886 11.3417 6.3583 11.3417 6.03833 11.3417C6.03833 11.0312 6.03833 10.7206 6.03833 10.4006Z" fill="#919191"/>
<path d="M6.03833 2.55835C6.34889 2.55835 6.65945 2.55835 6.97942 2.55835C6.97942 2.86891 6.97942 3.17947 6.97942 3.49943C6.66886 3.49943 6.3583 3.49943 6.03833 3.49943C6.03833 3.18888 6.03833 2.87832 6.03833 2.55835Z" fill="#919191"/>
<path d="M2.90137 9.6687C3.21193 9.6687 3.52248 9.6687 3.84245 9.6687C3.84245 9.94475 3.84245 10.2208 3.84245 10.5052C3.53189 10.5052 3.22134 10.5052 2.90137 10.5052C2.90137 10.2292 2.90137 9.95312 2.90137 9.6687Z" fill="#919191"/>
<path d="M6.03833 6.53174C6.34889 6.53174 6.65945 6.53174 6.97942 6.53174C6.97942 6.80779 6.97942 7.08384 6.97942 7.36826C6.66886 7.36826 6.3583 7.36826 6.03833 7.36826C6.03833 7.09221 6.03833 6.81616 6.03833 6.53174Z" fill="#919191"/>
<path d="M2.90137 3.39478C3.21193 3.39478 3.52248 3.39478 3.84245 3.39478C3.84245 3.67083 3.84245 3.94688 3.84245 4.2313C3.53189 4.2313 3.22134 4.2313 2.90137 4.2313C2.90137 3.95524 2.90137 3.67919 2.90137 3.39478Z" fill="#919191"/>
</svg>
