<svg width="30" height="28" viewBox="0 0 30 28" fill="none" xmlns="http://www.w3.org/2000/svg">
<path fill-rule="evenodd" clip-rule="evenodd" d="M14.9883 2.24485C13.3978 0.84805 11.3055 0 9.01327 0C4.03537 0 0 3.9995 0 8.93313C0 11.205 0.843984 13.2903 2.25332 14.8667L15 27.5L27.3693 15.2407L27.735 14.8552C29.1443 13.2787 30 11.205 30 8.93313C30 3.9995 25.9647 0 20.9867 0C18.6945 0 16.6022 0.84805 15.0117 2.24487L15 2.2333L14.9883 2.24485ZM15 5.5823L15.0915 5.66258L16.5132 4.25347L16.6613 4.12332C17.8113 3.11343 19.322 2.5 20.9867 2.5C24.605 2.5 27.5 5.40122 27.5 8.93313C27.5 10.5522 26.8975 12.029 25.8938 13.1635L25.582 13.4922L15 23.9802L4.07123 13.1485C3.08988 12.0263 2.5 10.5515 2.5 8.93313C2.5 5.40122 5.39498 2.5 9.01327 2.5C10.6779 2.5 12.1887 3.11343 13.3387 4.1233L13.4868 4.25338L14.9087 5.66253L15 5.5823Z" fill="#245F48"/>
</svg>
