<svg width="96" height="95" viewBox="0 0 96 95" fill="none" xmlns="http://www.w3.org/2000/svg">
<path d="M48.6773 0.309345C48.9712 0.307309 48.9712 0.307309 49.2711 0.305232C49.6847 0.303679 50.0984 0.304372 50.5121 0.307153C51.1451 0.31019 51.7774 0.302728 52.4104 0.294378C52.8126 0.29417 53.2149 0.294577 53.6171 0.295661C53.8062 0.292759 53.9953 0.289856 54.1901 0.286865C55.4991 0.307179 55.4991 0.307179 56.1922 0.948622C56.5691 1.63327 56.6285 2.07669 56.6206 2.85534C56.624 3.19104 56.624 3.19104 56.6275 3.53353C56.5112 4.15527 56.5112 4.15527 56.0724 4.55124C55.3957 5.29414 55.5134 6.03155 55.5396 7.00144C55.5427 7.18769 55.5457 7.37394 55.5489 7.56583C55.634 10.4903 56.4963 12.859 58.2627 15.1842C59.7379 17.1447 60.4888 19.1902 60.4769 21.6259C60.4769 21.7969 60.4769 21.9678 60.477 22.144C60.4768 22.7079 60.4751 23.2717 60.4734 23.8356C60.473 24.227 60.4727 24.6185 60.4725 25.0099C60.4716 26.0393 60.4695 27.0687 60.467 28.0981C60.4648 29.1488 60.4638 30.1996 60.4627 31.2504C60.4604 33.3114 60.4566 35.3725 60.452 37.4336C60.6234 37.4328 60.7949 37.432 60.9715 37.4312C65.1431 37.4118 69.3148 37.3973 73.4865 37.3882C75.5039 37.3837 77.5212 37.3776 79.5386 37.3675C81.297 37.3588 83.0554 37.3532 84.8138 37.3512C85.7449 37.3501 86.6758 37.3474 87.6068 37.341C88.4834 37.3351 89.3599 37.3332 90.2365 37.3345C90.558 37.3343 90.8794 37.3326 91.2008 37.3292C91.6404 37.3248 92.08 37.3264 92.5196 37.3283C92.7654 37.3275 93.0112 37.3267 93.2645 37.3258C94.3051 37.4896 94.9953 37.9972 95.6734 38.7883C96.0249 39.667 96.0679 40.4411 95.9197 41.3745C95.4396 42.3346 94.9593 42.9581 93.9493 43.3449C93.1433 43.3961 92.3473 43.383 91.541 43.3449C91.5328 43.5083 91.5246 43.6717 91.5162 43.8401C91.4027 45.7923 91.2208 47.7351 91.021 49.6804C90.9961 49.9259 90.9712 50.1715 90.9455 50.4246C90.769 52.1143 90.5646 53.7993 90.3514 55.4847C90.0449 57.9087 89.767 60.335 89.4976 62.7633C89.235 65.1215 88.9651 67.4789 88.6948 69.8362C88.6774 69.9881 88.66 70.1401 88.6421 70.2966C88.4188 72.2433 88.1931 74.1897 87.9625 76.1356C87.8681 76.9319 87.7745 77.7283 87.683 78.525C86.5651 88.2385 86.5651 88.2385 83.3685 91.2689C79.7526 94.1182 75.6179 94.0163 71.2483 94.0076C70.6788 94.0089 70.1092 94.0104 69.5396 94.0122C68.1586 94.016 66.7776 94.0162 65.3966 94.015C64.2733 94.0141 63.15 94.0144 62.0267 94.0156C61.7861 94.0159 61.7861 94.0159 61.5406 94.0161C61.2146 94.0164 60.8886 94.0168 60.5626 94.0171C57.5123 94.0201 54.462 94.0189 51.4117 94.0164C48.6261 94.0142 45.8406 94.0171 43.0551 94.0223C40.1884 94.0277 37.3216 94.0297 34.4549 94.0283C32.848 94.0275 31.2412 94.028 29.6344 94.0319C28.1234 94.0354 26.6125 94.0344 25.1015 94.0303C24.5484 94.0294 23.9953 94.0301 23.4423 94.0324C19.1325 94.0489 15.7356 93.7691 12.4365 90.6762C9.71282 87.7795 9.35034 84.1113 8.92927 80.322C8.90371 80.0976 8.87816 79.8731 8.85183 79.6418C8.79731 79.1625 8.74307 78.6831 8.68911 78.2037C8.5451 76.9247 8.39899 75.6459 8.25279 74.3671C8.22347 74.1104 8.19415 73.8537 8.16395 73.5892C7.92526 71.5072 7.67182 69.4272 7.41288 67.3476C6.93709 63.5239 6.5161 59.6958 6.11538 55.8635C5.79607 52.8124 5.45733 49.7641 5.09783 46.7176C5.08041 46.5685 5.063 46.4194 5.04506 46.2658C4.99883 45.8702 4.95203 45.4746 4.90519 45.0791C4.84217 44.4396 4.84217 44.4396 4.84217 43.5638C4.69937 43.5714 4.55656 43.5791 4.40943 43.5869C2.81852 43.6362 1.91944 43.4486 0.72343 42.3323C0.0955774 41.5128 -0.0712904 40.6427 0.0255701 39.623C0.554936 38.602 1.11318 37.8008 2.21493 37.4336C2.81237 37.3999 3.40529 37.3773 4.0032 37.3643C4.17721 37.3598 4.35123 37.3552 4.53051 37.3505C5.08594 37.3362 5.64138 37.3233 6.19684 37.3104C6.57357 37.301 6.95029 37.2914 7.32701 37.2818C8.2502 37.2584 9.17341 37.2362 10.0966 37.2147C9.98569 36.9583 9.87475 36.7019 9.76044 36.4378C8.32824 33.1125 7.0582 29.4481 8.26305 25.8437C9.36959 23.263 10.9971 21.5722 13.5132 20.3446C15.8037 19.4404 18.1856 19.857 20.3867 20.7944C20.9219 21.0625 21.4134 21.3483 21.9192 21.6702C21.9192 20.9477 21.9192 20.2252 21.9192 19.4808C21.6392 19.395 21.3593 19.3092 21.0708 19.2208C17.8049 18.1202 15.3688 16.3164 13.7416 13.2266C13.2216 12.0913 12.9108 11.0899 12.8881 9.83393C12.8824 9.64625 12.8768 9.45858 12.871 9.26521C12.9428 8.75293 12.9428 8.75293 13.2131 8.36295C13.9897 7.82684 14.8887 7.98719 15.789 8.09613C18.3237 8.67601 20.4243 10.1643 21.8243 12.3466C22.5553 13.6652 23.0129 14.9239 23.2328 16.4157C23.3155 16.2698 23.3982 16.1239 23.4834 15.9736C24.5227 14.2332 26.0647 11.9108 28.0494 11.1612C28.8319 11.1813 29.1359 11.3738 29.7599 11.8591C30.2388 12.4749 30.2388 12.4749 30.3594 13.0906C30.1816 14.1192 29.5927 14.4525 28.7883 15.061C26.6419 16.7906 25.3349 18.6467 24.9843 21.4512C25.2372 21.3158 25.4901 21.1803 25.7506 21.0407C27.8051 20.0279 30.005 19.8018 32.2366 20.3702C34.6097 21.193 36.0956 22.7727 37.2576 24.9508C38.473 27.5795 38.1307 31.0678 37.1947 33.7281C36.6746 35.0257 35.9667 36.2219 35.2743 37.4336C37.4418 37.4336 39.6093 37.4336 41.8424 37.4336C41.8373 36.6549 41.8373 36.6549 41.832 35.8605C41.8211 34.139 41.8138 32.4176 41.8084 30.6961C41.805 29.653 41.8003 28.61 41.7929 27.567C41.7857 26.5591 41.7818 25.5513 41.7801 24.5434C41.7789 24.1602 41.7765 23.777 41.773 23.3939C41.7421 19.9391 42.2973 17.517 44.3602 14.7053C46.4602 11.7497 46.7112 8.52926 46.878 5.03102C46.738 4.96328 46.598 4.89555 46.4538 4.82576C46.0022 4.59314 46.0022 4.59314 45.7833 4.37421C45.7441 3.87806 45.7246 3.3803 45.7149 2.8827C45.7026 2.47419 45.7026 2.47419 45.6901 2.05742C45.7833 1.3091 45.7833 1.3091 46.1008 0.832205C46.9318 0.23846 47.6788 0.30361 48.6773 0.309345Z" fill="#F9F9F7"/>
<path d="M66.8012 47.0668C68.6074 47.0668 70.4136 47.0668 72.2746 47.0668C72.2746 58.8434 72.2746 70.6199 72.2746 82.7534C70.4684 82.7534 68.6622 82.7534 66.8012 82.7534C66.8012 70.9768 66.8012 59.2002 66.8012 47.0668Z" fill="#22584A"/>
<path d="M75.5586 47.0668C76.5701 47.0668 77.5816 47.0668 78.6237 47.0668C78.6237 58.8434 78.6237 70.6199 78.6237 82.7534C77.6122 82.7534 76.6008 82.7534 75.5586 82.7534C75.5586 70.9768 75.5586 59.2002 75.5586 47.0668Z" fill="#24594A"/>
<path d="M94.6061 42.6881C94.3555 43.014 94.3555 43.014 93.9493 43.3449C93.3583 43.4091 93.3583 43.4091 92.7041 43.386C92.4865 43.3801 92.2689 43.3741 92.0447 43.368C91.8785 43.3604 91.7123 43.3528 91.541 43.3449C91.6132 43.2004 91.6855 43.0559 91.7599 42.9071C92.7123 42.6803 93.6307 42.6686 94.6061 42.6881Z" fill="#153F2D"/>
<path d="M53.4461 47.0668C54.7466 47.0668 56.047 47.0668 57.3869 47.0668C57.3869 58.8434 57.3869 70.6199 57.3869 82.7534C56.0864 82.7534 54.786 82.7534 53.4461 82.7534C53.4461 70.9768 53.4461 59.2002 53.4461 47.0668Z" fill="#235749"/>
<path d="M17.7594 47.0668C18.8432 47.0668 19.9269 47.0668 21.0435 47.0668C21.0435 58.8434 21.0435 70.6199 21.0435 82.7534C19.9597 82.7534 18.876 82.7534 17.7594 82.7534C17.7594 70.9768 17.7594 59.2002 17.7594 47.0668Z" fill="#265849"/>
<path d="M60.671 47.0668C61.6824 47.0668 62.6939 47.0668 63.7361 47.0668C63.7361 58.8434 63.7361 70.6199 63.7361 82.7534C62.7246 82.7534 61.7131 82.7534 60.671 82.7534C60.671 70.9768 60.671 59.2002 60.671 47.0668Z" fill="#235849"/>
<path d="M87.1623 76.1853C87.2345 76.1853 87.3068 76.1853 87.3812 76.1853C87.4357 76.6455 87.4849 77.1063 87.5317 77.5673C87.5597 77.8239 87.5876 78.0804 87.6164 78.3447C87.6001 79.0315 87.6001 79.0315 87.276 79.4514C87.1662 79.5296 87.0564 79.6077 86.9433 79.6883C86.7509 78.3413 86.7509 78.3413 86.7244 77.9368C86.7966 77.8645 86.8689 77.7923 86.9433 77.7179C87.0238 77.2081 87.0971 76.6972 87.1623 76.1853Z" fill="#285D4F"/>
<path d="M75.5586 19.6997C75.7031 19.772 75.8476 19.8442 75.9965 19.9186C75.7459 20.1151 75.7459 20.1151 75.4902 20.3155C75.0445 20.6783 74.6396 21.0359 74.245 21.4512C74.5229 20.5943 74.7949 20.1834 75.5586 19.6997Z" fill="#F3DCC4"/>
<path d="M48.6773 0.309345C48.9712 0.307309 48.9712 0.307309 49.2711 0.305232C49.6847 0.303679 50.0984 0.304372 50.5121 0.307153C51.1451 0.31019 51.7774 0.302728 52.4104 0.294378C52.8126 0.29417 53.2149 0.294577 53.6171 0.295661C53.8062 0.292759 53.9953 0.289856 54.1901 0.286865C55.4991 0.307179 55.4991 0.307179 56.1922 0.948622C56.5691 1.63327 56.6285 2.07669 56.6206 2.85534C56.624 3.19104 56.624 3.19104 56.6275 3.53353C56.5112 4.15527 56.5112 4.15527 56.0724 4.55124C55.3957 5.29414 55.5134 6.03155 55.5396 7.00144C55.5427 7.18769 55.5457 7.37394 55.5489 7.56583C55.634 10.4903 56.4963 12.859 58.2627 15.1842C59.7379 17.1447 60.4888 19.1902 60.4769 21.6259C60.4769 21.7969 60.4769 21.9678 60.477 22.144C60.4768 22.7079 60.4751 23.2717 60.4734 23.8356C60.473 24.227 60.4727 24.6185 60.4725 25.0099C60.4716 26.0393 60.4695 27.0687 60.467 28.0981C60.4648 29.1488 60.4638 30.1996 60.4627 31.2504C60.4604 33.3114 60.4566 35.3725 60.452 37.4336C60.6234 37.4328 60.7949 37.432 60.9715 37.4312C65.1431 37.4118 69.3148 37.3973 73.4865 37.3882C75.5039 37.3837 77.5212 37.3776 79.5386 37.3675C81.297 37.3588 83.0554 37.3532 84.8138 37.3512C85.7449 37.3501 86.6758 37.3474 87.6068 37.341C88.4834 37.3351 89.3599 37.3332 90.2365 37.3345C90.558 37.3343 90.8794 37.3326 91.2008 37.3292C91.6404 37.3248 92.08 37.3264 92.5196 37.3283C92.7654 37.3275 93.0112 37.3267 93.2645 37.3258C94.3051 37.4896 94.9953 37.9972 95.6734 38.7883C96.0249 39.667 96.0679 40.4411 95.9197 41.3745C95.4396 42.3346 94.9593 42.9581 93.9493 43.3449C93.1433 43.3961 92.3473 43.383 91.541 43.3449C91.5328 43.5083 91.5246 43.6717 91.5162 43.8401C91.4027 45.7923 91.2208 47.7351 91.021 49.6804C90.9961 49.9259 90.9712 50.1715 90.9455 50.4246C90.769 52.1143 90.5646 53.7993 90.3514 55.4847C90.0449 57.9087 89.767 60.335 89.4976 62.7633C89.235 65.1215 88.9651 67.4789 88.6948 69.8362C88.6774 69.9881 88.66 70.1401 88.6421 70.2966C88.4188 72.2433 88.1931 74.1897 87.9625 76.1356C87.8681 76.9319 87.7745 77.7283 87.683 78.525C86.5651 88.2385 86.5651 88.2385 83.3685 91.2689C79.7526 94.1182 75.6179 94.0163 71.2483 94.0076C70.6788 94.0089 70.1092 94.0104 69.5396 94.0122C68.1586 94.016 66.7776 94.0162 65.3966 94.015C64.2733 94.0141 63.15 94.0144 62.0267 94.0156C61.7861 94.0159 61.7861 94.0159 61.5406 94.0161C61.2146 94.0164 60.8886 94.0168 60.5626 94.0171C57.5123 94.0201 54.462 94.0189 51.4117 94.0164C48.6261 94.0142 45.8406 94.0171 43.0551 94.0223C40.1884 94.0277 37.3216 94.0297 34.4549 94.0283C32.848 94.0275 31.2412 94.028 29.6344 94.0319C28.1234 94.0354 26.6125 94.0344 25.1015 94.0303C24.5484 94.0294 23.9953 94.0301 23.4423 94.0324C19.1325 94.0489 15.7356 93.7691 12.4365 90.6762C9.71282 87.7795 9.35034 84.1113 8.92927 80.322C8.90371 80.0976 8.87816 79.8731 8.85183 79.6418C8.79731 79.1625 8.74307 78.6831 8.68911 78.2037C8.5451 76.9247 8.39899 75.6459 8.25279 74.3671C8.22347 74.1104 8.19415 73.8537 8.16395 73.5892C7.92526 71.5072 7.67182 69.4272 7.41288 67.3476C6.93709 63.5239 6.5161 59.6958 6.11538 55.8635C5.79607 52.8124 5.45733 49.7641 5.09783 46.7176C5.08041 46.5685 5.063 46.4194 5.04506 46.2658C4.99883 45.8702 4.95203 45.4746 4.90519 45.0791C4.84217 44.4396 4.84217 44.4396 4.84217 43.5638C4.69937 43.5714 4.55656 43.5791 4.40943 43.5869C2.81852 43.6362 1.91944 43.4486 0.72343 42.3323C0.0955774 41.5128 -0.0712904 40.6427 0.0255701 39.623C0.554936 38.602 1.11318 37.8008 2.21493 37.4336C2.81237 37.3999 3.40529 37.3773 4.0032 37.3643C4.17721 37.3598 4.35123 37.3552 4.53051 37.3505C5.08594 37.3362 5.64138 37.3233 6.19684 37.3104C6.57357 37.301 6.95029 37.2914 7.32701 37.2818C8.2502 37.2584 9.17341 37.2362 10.0966 37.2147C9.98569 36.9583 9.87475 36.7019 9.76044 36.4378C8.32824 33.1125 7.0582 29.4481 8.26305 25.8437C9.36959 23.263 10.9971 21.5722 13.5132 20.3446C15.8037 19.4404 18.1856 19.857 20.3867 20.7944C20.9219 21.0625 21.4134 21.3483 21.9192 21.6702C21.9192 20.9477 21.9192 20.2252 21.9192 19.4808C21.6392 19.395 21.3593 19.3092 21.0708 19.2208C17.8049 18.1202 15.3688 16.3164 13.7416 13.2266C13.2216 12.0913 12.9108 11.0899 12.8881 9.83393C12.8824 9.64625 12.8768 9.45858 12.871 9.26521C12.9428 8.75293 12.9428 8.75293 13.2131 8.36295C13.9897 7.82684 14.8887 7.98719 15.789 8.09613C18.3237 8.67601 20.4243 10.1643 21.8243 12.3466C22.5553 13.6652 23.0129 14.9239 23.2328 16.4157C23.3155 16.2698 23.3982 16.1239 23.4834 15.9736C24.5227 14.2332 26.0647 11.9108 28.0494 11.1612C28.8319 11.1813 29.1359 11.3738 29.7599 11.8591C30.2388 12.4749 30.2388 12.4749 30.3594 13.0906C30.1816 14.1192 29.5927 14.4525 28.7883 15.061C26.6419 16.7906 25.3349 18.6467 24.9843 21.4512C25.2372 21.3158 25.4901 21.1803 25.7506 21.0407C27.8051 20.0279 30.005 19.8018 32.2366 20.3702C34.6097 21.193 36.0956 22.7727 37.2576 24.9508C38.473 27.5795 38.1307 31.0678 37.1947 33.7281C36.6746 35.0257 35.9667 36.2219 35.2743 37.4336C37.4418 37.4336 39.6093 37.4336 41.8424 37.4336C41.8373 36.6549 41.8373 36.6549 41.832 35.8605C41.8211 34.139 41.8138 32.4176 41.8084 30.6961C41.805 29.653 41.8003 28.61 41.7929 27.567C41.7857 26.5591 41.7818 25.5513 41.7801 24.5434C41.7789 24.1602 41.7765 23.777 41.773 23.3939C41.7421 19.9391 42.2973 17.517 44.3602 14.7053C46.4602 11.7497 46.7112 8.52926 46.878 5.03102C46.738 4.96328 46.598 4.89555 46.4538 4.82576C46.0022 4.59314 46.0022 4.59314 45.7833 4.37421C45.7441 3.87806 45.7246 3.3803 45.7149 2.8827C45.7026 2.47419 45.7026 2.47419 45.6901 2.05742C45.7833 1.3091 45.7833 1.3091 46.1008 0.832205C46.9318 0.23846 47.6788 0.30361 48.6773 0.309345ZM10.7535 43.3449C10.7412 44.9034 10.7412 44.9034 10.8663 46.4203C10.8914 46.6186 10.9165 46.8169 10.9423 47.0213C10.9703 47.235 10.9983 47.4487 11.0271 47.6689C11.3104 49.929 11.5662 52.191 11.8071 54.4559C12.1975 58.1157 12.6116 61.7726 13.0286 65.4295C13.374 68.4621 13.7105 71.4952 14.0248 74.5312C14.4042 78.1926 14.4042 78.1926 14.8175 81.8503C14.8399 82.0546 14.8624 82.2589 14.8856 82.4693C15.1081 84.2923 15.5465 85.795 16.8837 87.1322C17.9798 87.9031 18.9671 88.2532 20.2969 88.2562C20.4988 88.2572 20.7006 88.2582 20.9086 88.2592C21.1296 88.2591 21.3506 88.2591 21.5783 88.2591C21.8137 88.2599 22.0491 88.2607 22.2916 88.2615C23.083 88.2639 23.8745 88.2648 24.6659 88.2656C25.2323 88.267 25.7987 88.2684 26.365 88.2699C28.0665 88.2743 29.768 88.2765 31.4694 88.2784C32.2711 88.2794 33.0727 88.2806 33.8743 88.2817C36.5395 88.2854 39.2048 88.2886 41.87 88.2902C42.5615 88.2906 43.2529 88.291 43.9443 88.2915C44.1161 88.2916 44.288 88.2917 44.465 88.2918C47.2484 88.2936 50.0318 88.2991 52.8153 88.3063C55.674 88.3135 58.5328 88.3174 61.3915 88.3181C62.9962 88.3186 64.6008 88.3205 66.2054 88.3261C67.7151 88.3314 69.2247 88.3322 70.7344 88.3299C71.2882 88.3298 71.842 88.3312 72.3959 88.3342C73.1526 88.3381 73.9091 88.3365 74.6658 88.3336C74.8844 88.336 75.103 88.3384 75.3281 88.3409C77.1754 88.324 78.8225 87.8092 80.1563 86.4753C80.8534 85.4012 81.2017 84.4722 81.381 83.199C81.4069 83.0302 81.4327 82.8615 81.4594 82.6876C81.7948 80.4156 82.0112 78.1282 82.2362 75.8432C82.3244 74.958 82.4134 74.0729 82.503 73.1878C82.5367 72.8548 82.5367 72.8548 82.5711 72.5151C82.7542 70.7281 82.9643 68.9451 83.182 67.162C83.4013 65.3605 83.6077 63.5579 83.8089 61.7544C83.8401 61.4754 83.8713 61.1964 83.9034 60.909C83.9673 60.3365 84.0312 59.7641 84.0951 59.1916C85.0691 50.4616 85.0691 50.4616 85.6151 46.4975C85.6467 46.2655 85.6784 46.0334 85.7109 45.7942C85.7379 45.6032 85.7648 45.4121 85.7926 45.2152C85.8551 44.5947 85.8486 43.9686 85.8486 43.3449C61.0672 43.3449 36.2858 43.3449 10.7535 43.3449Z" fill="#205446"/>
<path d="M15.789 8.09615C18.3237 8.67603 20.4243 10.1643 21.8243 12.3466C22.5553 13.6652 23.013 14.9239 23.2329 16.4157C23.3155 16.2698 23.3982 16.1239 23.4834 15.9736C24.5228 14.2332 26.0648 11.9108 28.0495 11.1613C28.8319 11.1813 29.1359 11.3738 29.7599 11.8591C30.2388 12.4749 30.2388 12.4749 30.3594 13.0906C30.1816 14.1195 29.5926 14.4521 28.7884 15.0611C26.8185 16.6603 25.837 18.1179 25.1643 20.5642C24.8645 21.598 24.8645 21.598 24.3369 21.9824C23.7254 22.1542 23.2079 22.1618 22.576 22.1081C22.3593 21.9636 22.1425 21.8191 21.9192 21.6702C21.8551 21.1485 21.8551 21.1485 21.8782 20.5482C21.8871 20.2493 21.8871 20.2493 21.8961 19.9444C21.9038 19.7914 21.9114 19.6384 21.9192 19.4808C21.8024 19.4461 21.6856 19.4114 21.5652 19.3756C18.0989 18.2902 15.4651 16.4992 13.7416 13.2266C13.2217 12.0913 12.9108 11.0899 12.8881 9.83395C12.8825 9.64628 12.8768 9.4586 12.871 9.26523C12.9428 8.75296 12.9428 8.75296 13.2131 8.36297C13.9898 7.82686 14.8887 7.98721 15.789 8.09615Z" fill="#245F48"/>
<path d="M88.339 6.54993C90.6056 7.88977 91.502 9.78327 92.1978 12.256C94.066 20.3197 90.5344 30.082 86.9433 37.2147C86.7244 37.4336 86.7244 37.4336 86.3145 37.4606C86.1339 37.4604 85.9532 37.4602 85.7671 37.46C85.5605 37.4603 85.3539 37.4606 85.141 37.4609C84.9125 37.4601 84.684 37.4593 84.4486 37.4585C84.2094 37.4585 83.9702 37.4586 83.7237 37.4586C82.9288 37.4584 82.134 37.4567 81.3391 37.455C80.7896 37.4546 80.2402 37.4543 79.6907 37.4541C78.3896 37.4533 77.0885 37.4516 75.7874 37.4494C74.1614 37.4467 72.5353 37.4456 70.9092 37.4443C68.0073 37.442 65.1054 37.4383 62.2035 37.4336C62.2715 37.0841 62.34 36.7347 62.4087 36.3853C62.4659 36.0934 62.4659 36.0934 62.5242 35.7956C62.6668 35.1249 62.8653 34.4898 63.0938 33.8434C63.181 33.5963 63.2682 33.3492 63.3581 33.0946C63.4978 32.7092 63.4978 32.7092 63.6403 32.316C63.7376 32.0462 63.835 31.7764 63.9353 31.4985C64.7812 29.1889 65.719 26.9437 66.8012 24.7353C66.8857 24.562 66.9703 24.3887 67.0574 24.2101C69.4564 19.3483 72.5438 14.9521 76.4344 11.1613C76.5591 11.0292 76.6839 10.8971 76.8124 10.761C79.5556 7.89762 84.2644 4.7059 88.339 6.54993Z" fill="#DDA16A"/>
<path d="M15.789 8.09615C18.3237 8.67603 20.4243 10.1643 21.8243 12.3466C22.5553 13.6652 23.0129 14.9239 23.2328 16.4157C23.3155 16.2698 23.3982 16.1239 23.4834 15.9736C24.5228 14.2332 26.0647 11.9108 28.0494 11.1613C28.8319 11.1813 29.1359 11.3738 29.7599 11.8591C30.2388 12.4749 30.2388 12.4749 30.3594 13.0906C30.1817 14.1192 29.5927 14.4525 28.7883 15.0611C26.6419 16.7907 25.3349 18.6467 24.9843 21.4513C25.3636 21.2481 25.3636 21.2481 25.7506 21.0408C27.8051 20.0279 30.005 19.8018 32.2366 20.3703C34.6097 21.1931 36.0956 22.7727 37.2576 24.9508C38.5854 27.8225 37.9879 31.2873 37.0258 34.1496C36.4478 35.2333 35.8698 36.317 35.2743 37.4336C27.038 37.4336 18.8016 37.4336 10.3156 37.4336C8.83249 34.4674 8.83249 34.4674 8.49568 33.3012C8.42879 33.076 8.36191 32.8508 8.29299 32.6187C7.54735 29.6744 7.614 26.8832 9.0721 24.2042C10.3238 22.1694 12.2253 20.5907 14.5746 20.0034C17.2752 19.5933 19.6318 20.2145 21.9192 21.6702C21.9192 20.9477 21.9192 20.2252 21.9192 19.4808C21.6393 19.395 21.3593 19.3092 21.0708 19.2209C17.8049 18.1203 15.3688 16.3164 13.7416 13.2266C13.2216 12.0913 12.9108 11.0899 12.8881 9.83395C12.8824 9.64628 12.8768 9.4586 12.871 9.26523C12.9428 8.75296 12.9428 8.75296 13.2131 8.36297C13.9898 7.82686 14.8887 7.98721 15.789 8.09615Z" fill="#50A367"/>
<path d="M48.6773 0.309345C48.9712 0.307309 48.9712 0.307309 49.2711 0.305232C49.6847 0.303679 50.0984 0.304372 50.5121 0.307153C51.1451 0.31019 51.7774 0.302728 52.4104 0.294378C52.8126 0.29417 53.2149 0.294577 53.6171 0.295661C53.8062 0.292759 53.9953 0.289856 54.1901 0.286865C55.4991 0.307179 55.4991 0.307179 56.1922 0.948622C56.5691 1.63327 56.6285 2.07669 56.6206 2.85534C56.624 3.19104 56.624 3.19104 56.6275 3.53353C56.5112 4.15527 56.5112 4.15527 56.0724 4.55124C55.3957 5.29414 55.5134 6.03155 55.5396 7.00144C55.5442 7.28082 55.5442 7.28082 55.5489 7.56583C55.634 10.4903 56.4963 12.859 58.2627 15.1842C59.7379 17.1447 60.4888 19.1902 60.4769 21.6259C60.4769 21.7996 60.4769 21.9734 60.4769 22.1523C60.4768 22.7134 60.4751 23.2745 60.4734 23.8356C60.4731 24.1825 60.4729 24.5294 60.4727 24.8763C60.4716 26.1612 60.4685 27.446 60.4657 28.7309C60.4612 31.6028 60.4567 34.4747 60.452 37.4336C54.3108 37.4336 48.1697 37.4336 41.8424 37.4336C41.8289 34.5888 41.8153 31.744 41.8014 28.813C41.7954 27.9185 41.7894 27.024 41.7833 26.1025C41.7803 25.0006 41.7803 25.0006 41.7797 24.4829C41.7787 24.1254 41.7764 23.7679 41.7731 23.4104C41.7422 19.9489 42.293 17.523 44.3602 14.7053C46.4602 11.7497 46.7112 8.52926 46.878 5.03102C46.738 4.96328 46.598 4.89555 46.4538 4.82576C46.0022 4.59314 46.0022 4.59314 45.7833 4.37421C45.7441 3.87806 45.7246 3.3803 45.7149 2.8827C45.7067 2.61036 45.6985 2.33801 45.6901 2.05742C45.7833 1.3091 45.7833 1.3091 46.1008 0.832205C46.9318 0.23846 47.6788 0.30361 48.6773 0.309345Z" fill="#479DE1"/>
<path d="M24.1086 47.0668C25.9148 47.0668 27.721 47.0668 29.582 47.0668C29.582 58.8434 29.582 70.6199 29.582 82.7534C27.7758 82.7534 25.9695 82.7534 24.1086 82.7534C24.1086 70.9768 24.1086 59.2002 24.1086 47.0668Z" fill="#205445"/>
<path d="M46.0022 47.0668C47.4472 47.0668 48.8922 47.0668 50.381 47.0668C50.381 58.8434 50.381 70.6199 50.381 82.7534C48.936 82.7534 47.491 82.7534 46.0022 82.7534C46.0022 70.9768 46.0022 59.2002 46.0022 47.0668Z" fill="#225445"/>
<path d="M39.2152 47.0668C40.4434 47.0668 41.6716 47.0668 42.9371 47.0668C42.9371 58.8434 42.9371 70.6199 42.9371 82.7534C41.7089 82.7534 40.4806 82.7534 39.2152 82.7534C39.2152 70.9768 39.2152 59.2002 39.2152 47.0668Z" fill="#205344"/>
<path d="M32.866 47.0668C33.8775 47.0668 34.889 47.0668 35.9311 47.0668C35.9311 58.8434 35.9311 70.6199 35.9311 82.7534C34.9197 82.7534 33.9082 82.7534 32.866 82.7534C32.866 70.9768 32.866 59.2002 32.866 47.0668Z" fill="#1D4E3F"/>
<path d="M82.1815 29.0319C82.5646 29.5519 82.5646 29.5519 82.7014 30.195C82.5183 31.0922 82.1592 31.3656 81.4699 31.9602C80.7447 32.3236 80.7447 32.3236 79.9374 32.6307C79.7932 32.6858 79.649 32.7409 79.5004 32.7977C78.1324 33.3123 76.7426 33.741 75.3397 34.1495C74.9642 34.2723 74.9642 34.2723 74.5811 34.3975C72.8649 34.9399 71.2335 35.2634 69.4284 35.0253C68.9905 34.5874 68.9905 34.5874 68.9495 33.8895C69.444 32.3018 70.9548 31.609 72.3567 30.8518C74.9205 29.6196 79.4156 27.649 82.1815 29.0319Z" fill="#F0D3B7"/>
<path d="M83.7687 16.7852C84.1989 16.7729 84.1989 16.7729 84.6377 16.7604C85.4108 16.8536 85.4108 16.8536 85.9444 17.2555C86.2865 17.7293 86.2865 17.7293 86.396 18.3725C86.2588 19.2128 85.9943 19.5222 85.4108 20.1376C83.5732 21.1478 81.4286 21.6946 79.4311 22.2996C79.2119 22.3676 78.9926 22.4356 78.7668 22.5056C77.4153 22.9008 76.095 23.192 74.6829 22.9838C74.4661 22.8393 74.2494 22.6948 74.0261 22.5459C73.8738 21.7083 73.9728 21.3218 74.4092 20.5892C76.5675 18.2866 80.6669 16.8432 83.7687 16.7852Z" fill="#F0D3B7"/>
<path d="M66.8012 47.0668C68.6074 47.0668 70.4136 47.0668 72.2746 47.0668C72.2746 58.8434 72.2746 70.6199 72.2746 82.7534C70.4684 82.7534 68.6622 82.7534 66.8012 82.7534C66.8012 70.9768 66.8012 59.2002 66.8012 47.0668ZM67.2391 47.2857C67.2391 58.8455 67.2391 70.4054 67.2391 82.3155C68.8285 82.3155 70.418 82.3155 72.0557 82.3155C72.0557 70.7557 72.0557 59.1958 72.0557 47.2857C70.4662 47.2857 68.8767 47.2857 67.2391 47.2857Z" fill="#153B29"/>
<path d="M53.4461 47.0668C54.7466 47.0668 56.047 47.0668 57.3869 47.0668C57.3869 58.8434 57.3869 70.6199 57.3869 82.7534C56.0864 82.7534 54.786 82.7534 53.4461 82.7534C53.4461 70.9768 53.4461 59.2002 53.4461 47.0668ZM53.8839 47.2857C53.8839 58.8455 53.8839 70.4054 53.8839 82.3155C54.9677 82.3155 56.0514 82.3155 57.168 82.3155C57.168 70.7557 57.168 59.1958 57.168 47.2857C56.0843 47.2857 55.0005 47.2857 53.8839 47.2857Z" fill="#0B3825"/>
<path d="M60.671 47.0668C61.6824 47.0668 62.6939 47.0668 63.7361 47.0668C63.7361 58.8434 63.7361 70.6199 63.7361 82.7534C62.7246 82.7534 61.7131 82.7534 60.671 82.7534C60.671 70.9768 60.671 59.2002 60.671 47.0668ZM60.8899 47.2857C60.8899 58.8455 60.8899 70.4054 60.8899 82.3155C61.6846 82.3155 62.4794 82.3155 63.2982 82.3155C63.2982 70.7557 63.2982 59.1958 63.2982 47.2857C62.5035 47.2857 61.7087 47.2857 60.8899 47.2857Z" fill="#04301D"/>
<path d="M75.5586 47.0668C76.5701 47.0668 77.5816 47.0668 78.6237 47.0668C78.6237 58.8434 78.6237 70.6199 78.6237 82.7534C77.6122 82.7534 76.6008 82.7534 75.5586 82.7534C75.5586 70.9768 75.5586 59.2002 75.5586 47.0668ZM75.9965 47.2857C75.9965 58.8455 75.9965 70.4054 75.9965 82.3155C76.7912 82.3155 77.586 82.3155 78.4048 82.3155C78.4048 70.7557 78.4048 59.1958 78.4048 47.2857C77.6101 47.2857 76.8153 47.2857 75.9965 47.2857Z" fill="#022E1D"/>
<path d="M18.1973 47.0668C19.1365 47.0668 20.0758 47.0668 21.0435 47.0668C21.0435 58.7711 21.0435 70.4755 21.0435 82.5345C20.899 82.5345 20.7545 82.5345 20.6056 82.5345C20.6056 70.9746 20.6056 59.4148 20.6056 47.5046C19.8109 47.5046 19.0161 47.5046 18.1973 47.5046C18.1973 47.3601 18.1973 47.2156 18.1973 47.0668Z" fill="#194837"/>
</svg>
