<svg width="18" height="18" viewBox="0 0 18 18" fill="none" xmlns="http://www.w3.org/2000/svg">
<path opacity="0.5" d="M2.45617 11.4718C1.81872 10.6436 1.5 10.2296 1.5 9C1.5 7.77045 1.81872 7.3564 2.45617 6.52825C3.72897 4.87467 5.86358 3 9 3C12.1364 3 14.271 4.87467 15.5438 6.52825C16.1812 7.3564 16.5 7.77045 16.5 9C16.5 10.2296 16.1812 10.6436 15.5438 11.4718C14.271 13.1253 12.1364 15 9 15C5.86358 15 3.72897 13.1253 2.45617 11.4718Z" stroke="#1C274C"/>
<path d="M11.25 9C11.25 10.2427 10.2427 11.25 9 11.25C7.75732 11.25 6.75 10.2427 6.75 9C6.75 7.75732 7.75732 6.75 9 6.75C10.2427 6.75 11.25 7.75732 11.25 9Z" stroke="#1C274C"/>
</svg>
