<svg width="33" height="14" viewBox="0 0 33 14" fill="none" xmlns="http://www.w3.org/2000/svg">
<path d="M24.1222 3.72727V11H23.2415V4.65057H23.1989L21.4233 5.82955V4.93466L23.2415 3.72727H24.1222ZM26.2138 11V10.3608L28.6143 7.73295C28.8961 7.42519 29.1281 7.15767 29.3104 6.9304C29.4927 6.70076 29.6276 6.48532 29.7152 6.28409C29.8052 6.08049 29.8501 5.86742 29.8501 5.64489C29.8501 5.3892 29.7886 5.16785 29.6655 4.98082C29.5447 4.7938 29.379 4.64938 29.1683 4.54759C28.9576 4.44579 28.7209 4.39489 28.4581 4.39489C28.1787 4.39489 27.9349 4.45289 27.7266 4.56889C27.5206 4.68253 27.3608 4.84233 27.2472 5.0483C27.1359 5.25426 27.0803 5.49574 27.0803 5.77273H26.2422C26.2422 5.34659 26.3404 4.97254 26.5369 4.65057C26.7334 4.3286 27.0009 4.07765 27.3395 3.89773C27.6804 3.7178 28.0627 3.62784 28.4865 3.62784C28.9126 3.62784 29.2902 3.7178 29.6193 3.89773C29.9484 4.07765 30.2064 4.32031 30.3935 4.62571C30.5805 4.93111 30.674 5.27083 30.674 5.64489C30.674 5.91241 30.6255 6.17401 30.5284 6.42969C30.4337 6.683 30.268 6.96591 30.0312 7.27841C29.7969 7.58854 29.4714 7.96733 29.0547 8.41477L27.4212 10.1619V10.2188H30.8018V11H26.2138Z" fill="black"/>
<mask id="mask0_35_617" style="mask-type:luminance" maskUnits="userSpaceOnUse" x="0" y="0" width="15" height="14">
<path d="M14.2056 0.656738H0.0718994V13.6414H14.2056V0.656738Z" fill="white"/>
</mask>
<g mask="url(#mask0_35_617)">
<path d="M0.0770932 9.06453C0.0547435 7.78479 0.413777 6.88161 1.15189 6.12434C1.85479 5.40328 2.69494 4.87428 3.58296 4.42843C3.953 4.2448 4.2551 3.9483 4.44563 3.58177C4.54842 3.39389 4.60978 3.18297 4.68591 2.98102C4.72744 2.87083 4.76157 2.75776 4.79765 2.64555C5.15329 1.5387 5.94465 0.936971 7.0561 0.734216C8.40122 0.488828 9.64946 1.16232 10.2908 2.45361C10.3145 2.49668 10.3352 2.54135 10.3527 2.58729C10.6132 3.37182 11.2037 3.78482 11.9565 4.01572C12.0973 4.05893 12.2372 4.10525 12.3789 4.14483C13.3278 4.40992 13.8599 5.053 14.076 5.99434C14.2475 6.74124 14.1351 7.41346 13.6224 8.00829C13.3983 8.26816 13.2082 8.5572 13.0052 8.83482C12.7078 9.24155 12.6074 9.70103 12.6318 10.1986C12.6461 10.4926 12.6694 10.7918 12.633 11.0817C12.5083 12.0741 11.6863 13.317 10.196 13.5488C9.16389 13.7096 8.1641 13.6407 7.17905 13.2819C6.79037 13.1469 6.39336 13.037 5.99055 12.9531C5.38116 12.8168 4.78007 12.9474 4.17617 13.0358C3.81914 13.088 3.44483 13.142 3.09339 13.091C1.83985 12.9091 0.990909 12.173 0.504381 11.025C0.210675 10.3324 0.0737035 9.5973 0.0770932 9.06453ZM9.39534 12.7646C9.54739 12.7531 9.73341 12.7339 9.91986 12.725C11.2515 12.6618 12.0963 11.4283 11.8614 10.2903C11.7137 9.57419 11.8962 8.90463 12.3556 8.32365C12.6178 7.99232 12.8799 7.66091 13.1484 7.33464C13.2676 7.19612 13.3519 7.03127 13.3948 6.85369C13.4376 6.6761 13.4375 6.49092 13.3946 6.31337C13.3557 6.13159 13.3042 5.95193 13.2487 5.77434C13.1061 5.31798 12.7927 5.0264 12.3477 4.87316C12.0974 4.78698 11.8396 4.722 11.5901 4.63364C10.7165 4.32437 10.0274 3.81516 9.73157 2.88808C9.7131 2.8321 9.68999 2.77772 9.66259 2.72547C9.03144 1.48958 7.80111 0.836651 6.33603 1.63095C6.11063 1.75015 5.91667 1.92106 5.77001 2.12967C5.57013 2.43176 5.41255 2.7598 5.30164 3.10462C5.09268 3.77645 4.66548 4.35929 4.08774 4.76084C3.53693 5.15584 2.97704 5.53878 2.43674 5.94774C1.7612 6.45909 1.17005 7.04547 0.969812 7.91268C0.708341 8.98639 0.878531 10.1199 1.44381 11.0695C1.92068 11.8831 2.67684 12.3237 3.67574 12.182C3.87022 12.1545 4.06534 12.1293 4.2585 12.094C4.85201 11.9857 5.45154 11.911 6.04445 12.0491C6.58716 12.1755 7.12022 12.3465 7.65219 12.5144C8.21001 12.6913 8.7741 12.8012 9.39534 12.7649V12.7646Z" fill="#919191"/>
<path d="M7.48437 9.08578C6.83973 9.07658 6.2194 8.83792 5.73489 8.41258C4.92611 7.71963 4.8185 6.52958 5.4783 5.64655C5.7497 5.28285 6.10966 4.99467 6.52396 4.80945C6.81697 4.67542 7.09063 4.51068 7.42168 4.46655C8.30648 4.34912 9.36148 4.88496 9.82377 5.70334C10.2541 6.46529 10.146 7.5429 9.54129 8.24114C9.02726 8.83471 8.34514 9.07182 7.48437 9.08578ZM9.30021 6.72274C9.30327 5.7575 8.41455 5.17532 7.60399 5.13303C6.80066 5.09103 6.20664 5.5367 5.87686 6.28096C5.59533 6.91654 5.81142 7.60478 6.39573 7.98294C6.96803 8.35335 7.58859 8.4169 8.22904 8.2154C8.89333 8.00644 9.30397 7.41506 9.30047 6.72274H9.30021Z" fill="#919191"/>
</g>
</svg>
