<svg width="30" height="30" viewBox="0 0 30 30" fill="none" xmlns="http://www.w3.org/2000/svg">
<g clip-path="url(#clip0_35_732)">
<path d="M4.52958 -0.126271C4.61676 -0.126516 4.70394 -0.126836 4.79113 -0.127225C5.02915 -0.128067 5.26717 -0.127824 5.50519 -0.127391C5.76247 -0.127114 6.01975 -0.127847 6.27703 -0.128445C6.78036 -0.129448 7.28367 -0.129499 7.78699 -0.129192C8.196 -0.128956 8.605 -0.129041 9.01401 -0.129353C9.07227 -0.129397 9.13054 -0.129441 9.19058 -0.129486C9.30895 -0.129575 9.42733 -0.129665 9.54571 -0.129755C10.6547 -0.130557 11.7637 -0.13024 12.8727 -0.129569C13.8876 -0.128988 14.9024 -0.129746 15.9172 -0.131144C16.9596 -0.132569 18.002 -0.133132 19.0444 -0.132743C19.6295 -0.132539 20.2145 -0.132671 20.7996 -0.133693C21.2974 -0.134553 21.7952 -0.134593 22.293 -0.133572C22.547 -0.133073 22.8009 -0.132952 23.0549 -0.133844C23.2874 -0.134651 23.5198 -0.13438 23.7522 -0.133246C23.8364 -0.133025 23.9205 -0.1332 24.0046 -0.133808C24.7839 -0.139041 24.7839 -0.139041 25.0678 0.130289C25.2747 0.366221 25.3189 0.572731 25.3137 0.887011C25.2859 1.15414 25.1713 1.31736 24.9766 1.49344C24.7562 1.64638 24.6351 1.65641 24.3677 1.65058C24.3672 2.15434 24.3686 2.65804 24.3723 3.16179C24.374 3.39572 24.3751 3.62963 24.3747 3.86358C24.3743 4.08957 24.3756 4.31549 24.3781 4.54147C24.3787 4.62746 24.3788 4.71346 24.3782 4.79945C24.3599 5.34504 24.3599 5.34504 24.5965 5.81645C24.6563 5.8702 24.7162 5.92391 24.7761 5.97758C24.8955 6.17812 24.8955 6.17812 24.9949 6.37958C25.0283 6.44576 25.0617 6.51194 25.0961 6.58012C25.3059 7.09282 25.318 7.5815 25.3164 8.13133C25.3166 8.21281 25.3168 8.29428 25.3171 8.37576C25.3177 8.59856 25.3175 8.82135 25.3173 9.04414C25.3172 9.28486 25.3177 9.52557 25.3181 9.76629C25.3189 10.2375 25.319 10.7086 25.3188 11.1798C25.3187 11.5629 25.3188 11.946 25.3191 12.3291C25.3191 12.3837 25.3191 12.4383 25.3192 12.4945C25.3193 12.6054 25.3193 12.7163 25.3194 12.8272C25.32 13.8666 25.3199 14.9059 25.3195 15.9453C25.3192 16.8954 25.3199 17.8454 25.321 18.7955C25.3221 19.7719 25.3226 20.7482 25.3224 21.7246C25.3223 22.2724 25.3224 22.8202 25.3233 23.368C25.324 23.8344 25.324 24.3008 25.3233 24.7672C25.323 25.005 25.3229 25.2427 25.3236 25.4805C25.3243 25.6985 25.3241 25.9166 25.3233 26.1346C25.323 26.25 25.3237 26.3655 25.3243 26.4809C25.3189 27.3859 25.0667 28.2332 24.4338 28.9044C23.9817 29.3094 23.4963 29.611 22.909 29.776C22.8744 29.7863 22.8397 29.7966 22.804 29.8072C22.6505 29.8399 22.509 29.8421 22.352 29.8424C22.2858 29.8426 22.2195 29.8429 22.1512 29.8432C22.0784 29.8432 22.0056 29.8431 21.9306 29.8431C21.8525 29.8433 21.7744 29.8435 21.6963 29.8438C21.4814 29.8444 21.2665 29.8446 21.0516 29.8447C20.82 29.845 20.5883 29.8455 20.3566 29.846C19.7969 29.8472 19.2372 29.8478 18.6775 29.8483C18.4138 29.8486 18.1501 29.8489 17.8864 29.8492C17.0096 29.8502 16.1327 29.851 15.2559 29.8514C15.0283 29.8516 14.8008 29.8517 14.5733 29.8518C14.5167 29.8518 14.4602 29.8518 14.4019 29.8519C13.4864 29.8524 12.5708 29.8538 11.6553 29.8557C10.7149 29.8577 9.77454 29.8587 8.83416 29.8589C8.30634 29.859 7.77853 29.8595 7.25072 29.861C6.80107 29.8623 6.35143 29.8628 5.90178 29.8622C5.67256 29.8619 5.44335 29.8621 5.21413 29.8632C5.00382 29.8642 4.79353 29.8642 4.58321 29.8633C4.47207 29.8631 4.36092 29.864 4.24978 29.865C3.30391 29.858 2.55012 29.5109 1.86535 28.8688C1.34793 28.3145 1.02283 27.6062 1.02177 26.8477C1.02164 26.8058 1.0215 26.7639 1.02136 26.7207C1.02097 26.5795 1.02099 26.4383 1.02102 26.2971C1.02083 26.1951 1.02061 26.0932 1.02037 25.9912C1.01978 25.7104 1.01957 25.4296 1.01941 25.1488C1.01918 24.8462 1.01863 24.5436 1.01812 24.241C1.01696 23.5098 1.01638 22.7786 1.01586 22.0475C1.0156 21.7032 1.01529 21.3589 1.01498 21.0146C1.01399 19.8702 1.01314 18.7257 1.01272 17.5812C1.01261 17.2842 1.0125 16.9872 1.01238 16.6901C1.01235 16.6163 1.01233 16.5425 1.0123 16.4664C1.01181 15.2705 1.01034 14.0746 1.00844 12.8788C1.00651 11.6511 1.00546 10.4234 1.00527 9.19571C1.00515 8.50638 1.00464 7.81705 1.00315 7.12772C1.00188 6.54062 1.00141 5.95352 1.00198 5.36642C1.00224 5.06695 1.00213 4.7675 1.001 4.46803C0.99997 4.1936 1.00003 3.9192 1.00093 3.64477C1.00107 3.54576 1.00082 3.44675 1.00013 3.34774C0.993693 2.36791 1.2291 1.52587 1.90843 0.788109C2.66898 0.0739385 3.5122 -0.130946 4.52958 -0.126271ZM3.18838 2.11837C2.84024 2.55782 2.79321 2.96952 2.8383 3.52172C2.93604 3.90292 3.20941 4.19433 3.53845 4.39881C3.963 4.59185 4.36897 4.59866 4.82886 4.59532C4.90483 4.59547 4.98081 4.59562 5.05909 4.59578C5.26878 4.59617 5.47846 4.59547 5.68816 4.59459C5.91473 4.59383 6.1413 4.59409 6.36787 4.59422C6.76003 4.59431 7.15219 4.59376 7.54435 4.59278C8.11134 4.59135 8.67832 4.59089 9.24531 4.59067C10.1653 4.59029 11.0853 4.58912 12.0053 4.58746C12.8987 4.58585 13.7922 4.58461 14.6857 4.58387C14.7684 4.5838 14.7684 4.5838 14.8527 4.58373C15.1292 4.5835 15.4057 4.58328 15.6821 4.58306C17.9744 4.58124 20.2667 4.5781 22.559 4.57423C22.559 3.60943 22.559 2.64462 22.559 1.65058C20.234 1.64794 17.909 1.64585 15.5841 1.64461C15.3095 1.64447 15.035 1.64432 14.7605 1.64416C14.7058 1.64413 14.6512 1.6441 14.5949 1.64407C13.7101 1.64356 12.8254 1.64264 11.9406 1.64156C11.0326 1.64047 10.1247 1.63982 9.21678 1.63958C8.65659 1.63942 8.0964 1.63891 7.53621 1.63796C7.15201 1.63735 6.76781 1.63716 6.3836 1.63731C6.16198 1.63739 5.94035 1.63727 5.71873 1.63664C5.47823 1.63597 5.23774 1.6362 4.99725 1.63652C4.92749 1.63618 4.85774 1.63584 4.78587 1.63549C4.17682 1.63768 3.65944 1.70025 3.18838 2.11837ZM2.77996 6.03605C2.77729 8.64918 2.77523 11.2623 2.774 13.8754C2.77385 14.1839 2.7737 14.4924 2.77355 14.8009C2.77352 14.8623 2.77349 14.9238 2.77346 14.987C2.77295 15.9815 2.77203 16.976 2.77096 17.9704C2.76986 18.9908 2.76922 20.0112 2.76898 21.0316C2.76882 21.6613 2.76831 22.2909 2.76737 22.9206C2.76675 23.3524 2.76656 23.7841 2.76671 24.2159C2.76679 24.465 2.76667 24.7141 2.76605 24.9632C2.76548 25.1914 2.76545 25.4196 2.76585 25.6479C2.7659 25.7303 2.76575 25.8127 2.76539 25.8951C2.76257 26.5676 2.78677 27.1447 3.24672 27.671C3.7411 28.0997 4.35218 28.0976 4.97599 28.0952C5.08547 28.0955 5.08547 28.0955 5.19716 28.0957C5.39852 28.0962 5.59987 28.096 5.80124 28.0956C6.01887 28.0954 6.2365 28.0958 6.45414 28.0961C6.88 28.0966 7.30586 28.0965 7.73173 28.0962C8.07793 28.0959 8.42412 28.0959 8.77032 28.096C8.81965 28.096 8.86898 28.096 8.9198 28.096C9.02002 28.0961 9.12023 28.0961 9.22045 28.0962C10.1595 28.0965 11.0986 28.0961 12.0377 28.0955C12.843 28.095 13.6483 28.095 14.4535 28.0956C15.3893 28.0962 16.3251 28.0965 17.2609 28.0961C17.3608 28.0961 17.4606 28.096 17.5605 28.096C17.6096 28.096 17.6587 28.0959 17.7093 28.0959C18.055 28.0958 18.4007 28.096 18.7463 28.0963C19.1677 28.0966 19.5892 28.0965 20.0106 28.0959C20.2255 28.0956 20.4404 28.0955 20.6552 28.0959C20.8884 28.0963 21.1216 28.0958 21.3548 28.0952C21.4562 28.0956 21.4562 28.0956 21.5596 28.096C22.1349 28.0932 22.6316 28.0611 23.0604 27.6377C23.4907 27.1662 23.5181 26.7498 23.5155 26.1286C23.5158 26.0486 23.5161 25.9686 23.5166 25.8886C23.5175 25.6693 23.5174 25.45 23.5171 25.2307C23.5169 24.994 23.5178 24.7573 23.5185 24.5205C23.5197 24.057 23.52 23.5934 23.5199 23.1298C23.5198 22.7529 23.52 22.3761 23.5205 21.9992C23.5206 21.8906 23.5207 21.782 23.5208 21.6734C23.5209 21.6194 23.5209 21.5653 23.521 21.5096C23.5221 20.4875 23.522 19.4654 23.5216 18.4432C23.5213 17.5086 23.5225 16.5739 23.5245 15.6392C23.5264 14.6792 23.5273 13.7191 23.5271 12.759C23.5269 12.2201 23.5272 11.6813 23.5287 11.1424C23.5299 10.6836 23.5301 10.2248 23.529 9.76604C23.5285 9.53207 23.5284 9.29813 23.5296 9.06416C23.5307 8.84971 23.5304 8.63531 23.5291 8.42087C23.5288 8.30709 23.5298 8.19331 23.531 8.07954C23.526 7.58434 23.4413 7.17535 23.0983 6.80151C22.6584 6.38547 22.2195 6.36148 21.6389 6.36515C21.5637 6.36493 21.4885 6.3647 21.411 6.36447C21.2029 6.36387 20.9947 6.36435 20.7866 6.36501C20.5618 6.36553 20.337 6.36503 20.1123 6.36465C19.7228 6.36412 19.3334 6.36419 18.944 6.36466C18.38 6.36532 17.8159 6.36479 17.2519 6.36393C16.3353 6.36254 15.4188 6.36176 14.5023 6.36152C14.4475 6.36151 14.3926 6.36149 14.3361 6.36148C13.725 6.36133 13.1138 6.3613 12.5026 6.36136C12.2813 6.36138 12.0599 6.36139 11.8386 6.36141C11.7567 6.36141 11.7567 6.36141 11.6731 6.36142C10.7606 6.36145 9.84812 6.36058 8.93562 6.35902C8.37347 6.3581 7.81134 6.35796 7.24919 6.35885C6.86341 6.35941 6.47763 6.35912 6.09184 6.3582C5.86969 6.35769 5.64755 6.35756 5.42539 6.35846C3.7206 6.36495 3.7206 6.36495 2.95499 6.09453C2.89723 6.07523 2.83947 6.05593 2.77996 6.03605Z" fill="#245F48"/>
<path d="M15.0783 12.4225C15.1313 12.4454 15.1843 12.4684 15.2389 12.4921C15.5217 12.6217 15.7379 12.7537 15.9623 12.9444C16.269 13.176 16.5446 13.1666 16.9497 13.1726C18.0639 13.2136 19.0743 13.6823 19.8386 14.3183C20.386 14.8243 20.7749 15.4555 20.9353 16.1172C20.9495 16.1735 20.9636 16.2299 20.9782 16.288C21.0954 17.3922 20.7422 18.3727 19.8878 19.2393C19.3278 19.7423 18.5559 20.1215 17.7576 20.3179C17.6753 20.3179 17.5931 20.3179 17.5083 20.3179C17.509 20.3897 17.509 20.3897 17.5096 20.4628C17.5134 20.9148 17.5162 21.3667 17.518 21.8187C17.519 22.051 17.5203 22.2834 17.5224 22.5157C17.5245 22.7401 17.5256 22.9646 17.5261 23.1891C17.5264 23.2744 17.5271 23.3598 17.5281 23.4452C17.5398 24.4704 17.5398 24.4704 17.2331 24.7515C16.9837 24.9308 16.7791 24.9804 16.4549 24.9817C16.3603 24.9822 16.3603 24.9822 16.2637 24.9828C16.16 24.983 16.16 24.983 16.0542 24.9832C15.9814 24.9835 15.9085 24.9839 15.8334 24.9842C15.5918 24.9852 15.3501 24.9858 15.1085 24.9863C15.0252 24.9865 14.9419 24.9867 14.8586 24.9869C14.4672 24.9879 14.0758 24.9886 13.6843 24.989C13.233 24.9895 12.7818 24.9909 12.3305 24.9929C11.9813 24.9944 11.6322 24.9952 11.283 24.9954C11.0746 24.9955 10.8663 24.996 10.6579 24.9972C10.4252 24.9984 10.1926 24.9984 9.95987 24.998C9.85692 24.999 9.85692 24.999 9.75188 25C9.35529 24.9978 9.09661 24.9796 8.78507 24.7718C8.5506 24.5133 8.49981 24.2631 8.50754 23.9493C8.5075 23.9097 8.50747 23.8702 8.50743 23.8294C8.5076 23.7001 8.50953 23.5709 8.51149 23.4417C8.51196 23.3515 8.51231 23.2613 8.51256 23.1711C8.51351 22.9347 8.51595 22.6985 8.51872 22.4622C8.52128 22.2206 8.52241 21.979 8.52366 21.7375C8.52633 21.2643 8.53058 20.7911 8.53583 20.3179C8.46753 20.3105 8.39923 20.3031 8.32886 20.2954C7.46959 20.1902 6.5866 19.6974 6.04347 19.1539C5.65829 18.7261 5.36619 18.2966 5.17115 17.7873C5.15589 17.7484 5.14063 17.7094 5.1249 17.6693C4.8135 16.6801 5.10978 15.6627 5.73193 14.8012C5.86497 14.6389 6.00821 14.4911 6.16809 14.3457C6.20576 14.311 6.24343 14.2763 6.28224 14.2406C6.99426 13.6233 8.04719 13.2076 9.09126 13.1737C9.1727 13.1722 9.25415 13.1706 9.33806 13.169C9.7183 13.1557 9.7183 13.1557 10.0079 12.976C10.0394 12.9443 10.071 12.9125 10.1035 12.8798C11.2775 11.825 13.6281 11.7786 15.0783 12.4225ZM11.0516 14.3552C11.0096 14.3977 10.9677 14.4402 10.9245 14.4839C10.6535 14.6978 10.4062 14.7597 10.0381 14.7583C9.92673 14.7551 9.81542 14.7515 9.70413 14.7475C9.20536 14.739 8.79547 14.7531 8.34891 14.9531C8.29943 14.9751 8.24995 14.9972 8.19898 15.0199C7.58229 15.3255 7.1795 15.7708 7.00196 16.3421C6.88278 16.9882 7.02548 17.5208 7.47147 18.06C7.94207 18.5398 8.52602 18.7846 9.26407 18.8534C9.34142 18.8592 9.41877 18.865 9.49846 18.871C9.72887 18.902 9.88944 18.9631 10.0936 19.0526C10.1347 19.0526 10.1758 19.0526 10.2182 19.0526C10.2375 19.0923 10.2567 19.132 10.2766 19.1728C10.3384 19.3018 10.3384 19.3018 10.4051 19.4069C10.4257 19.9247 10.4462 20.4425 10.4674 20.9759C12.1535 20.9759 13.8396 20.9759 15.5768 20.9759C15.5973 20.4414 15.6179 19.907 15.6391 19.3563C15.9511 18.9761 15.9511 18.9761 16.3245 18.9008C16.467 18.8837 16.6099 18.868 16.7528 18.8534C17.5159 18.7726 18.0968 18.4852 18.5922 18.0074C18.984 17.542 19.1551 16.9924 19.0373 16.4372C18.88 15.9056 18.5424 15.4424 18.0068 15.1049C17.59 14.9052 17.2047 14.7391 16.7146 14.751C16.6584 14.7519 16.6021 14.7527 16.5441 14.7536C16.427 14.7558 16.3098 14.7585 16.1927 14.7615C15.8313 14.7661 15.5807 14.7468 15.2652 14.5988C15.1197 14.4839 15.1197 14.4839 14.9926 14.3552C14.4946 13.8841 13.914 13.6398 13.1521 13.5767C12.3122 13.5395 11.5869 13.8523 11.0516 14.3552ZM10.4674 22.5449C10.4674 22.8288 10.4674 23.1127 10.4674 23.4053C12.1535 23.4053 13.8396 23.4053 15.5768 23.4053C15.5768 23.1213 15.5768 22.8374 15.5768 22.5449C13.8907 22.5449 12.2046 22.5449 10.4674 22.5449Z" fill="#245F48"/>
</g>
<defs>
<clipPath id="clip0_35_732">
<rect width="30" height="30" fill="white"/>
</clipPath>
</defs>
</svg>
