<svg width="29" height="29" viewBox="0 0 29 29" fill="none" xmlns="http://www.w3.org/2000/svg">
<path d="M7.25 15.7084C7.25 15.7084 9.425 13.2917 14.5 13.2917C19.575 13.2917 21.75 15.7084 21.75 15.7084" stroke="#245F48" stroke-width="2" stroke-linecap="round"/>
<path d="M26.5833 16.9167C26.5833 21.4736 26.5833 23.7522 25.1676 25.1677C23.752 26.5834 21.4735 26.5834 16.9166 26.5834" stroke="#245F48" stroke-width="2" stroke-linecap="round"/>
<path d="M12.0833 26.5834C7.52638 26.5834 5.24793 26.5834 3.83227 25.1677C2.41663 23.7522 2.41663 21.4736 2.41663 16.9167" stroke="#245F48" stroke-width="2" stroke-linecap="round"/>
<path d="M12.0833 2.41675C7.52638 2.41675 5.24793 2.41675 3.83227 3.8324C2.41663 5.24805 2.41663 7.5265 2.41663 12.0834" stroke="#245F48" stroke-width="2" stroke-linecap="round"/>
<path d="M16.9166 2.41675C21.4735 2.41675 23.752 2.41675 25.1676 3.8324C26.5833 5.24805 26.5833 7.5265 26.5833 12.0834" stroke="#245F48" stroke-width="2" stroke-linecap="round"/>
</svg>
