<svg width="32" height="32" viewBox="0 0 32 32" fill="none" xmlns="http://www.w3.org/2000/svg">
<path d="M2.16615 19.4406C0.989219 13.9481 0.400753 11.202 1.87597 9.3772C3.35119 7.55237 6.15972 7.55237 11.7768 7.55237H20.2232C25.8404 7.55237 28.6488 7.55237 30.1241 9.3772C31.5992 11.202 31.0108 13.9481 29.8338 19.4406L29.1319 22.7169C28.3341 26.4395 27.9352 28.3009 26.5836 29.3936C25.232 30.4862 23.3285 30.4862 19.5211 30.4862H12.4788C8.67158 30.4862 6.76796 30.4862 5.41638 29.3936C4.06481 28.3009 3.66594 26.4395 2.86822 22.7169L2.16615 19.4406Z" stroke="#245F48" stroke-width="2"/>
<path d="M1.25684 14.1051H30.7432" stroke="#245F48" stroke-width="2" stroke-linecap="round" stroke-linejoin="round"/>
<path d="M12.7237 19.0194H19.2762" stroke="#245F48" stroke-width="2" stroke-linecap="round" stroke-linejoin="round"/>
<path d="M25.8287 10.8288L20.9143 1" stroke="#245F48" stroke-width="2" stroke-linecap="round" stroke-linejoin="round"/>
<path d="M6.17114 10.8288L11.0855 1" stroke="#245F48" stroke-width="2" stroke-linecap="round" stroke-linejoin="round"/>
</svg>
